<?xml version="1.0" encoding="UTF-8"?>
<!DOCTYPE svg PUBLIC "-//W3C//DTD SVG 1.1//EN" "http://www.w3.org/Graphics/SVG/1.1/DTD/svg11.dtd">
<svg xmlns="http://www.w3.org/2000/svg" version="1.1" width="2000px" height="2000px" style="shape-rendering:geometricPrecision; text-rendering:geometricPrecision; image-rendering:optimizeQuality; fill-rule:evenodd; clip-rule:evenodd" xmlns:xlink="http://www.w3.org/1999/xlink">
<g><path style="opacity:0.994" fill="#000000" d="M 835.5,199.5 C 944.834,199.333 1054.17,199.5 1163.5,200C 1211.33,209.167 1239.83,237.667 1249,285.5C 1249.5,356.833 1249.67,428.166 1249.5,499.5C 1291.19,499.046 1332.86,499.546 1374.5,501C 1433.21,513.053 1472.71,547.219 1493,603.5C 1495.77,612.667 1497.77,622 1499,631.5C 1499.5,654.164 1499.67,676.831 1499.5,699.5C 1515.17,699.333 1530.84,699.5 1546.5,700C 1548.33,701.167 1549.83,702.667 1551,704.5C 1551.67,751.167 1551.67,797.833 1551,844.5C 1549.83,846.333 1548.33,847.833 1546.5,849C 1530.84,849.5 1515.17,849.667 1499.5,849.5C 1499.5,949.5 1499.5,1049.5 1499.5,1149.5C 1515.17,1149.33 1530.84,1149.5 1546.5,1150C 1548.33,1151.17 1549.83,1152.67 1551,1154.5C 1551.67,1201.17 1551.67,1247.83 1551,1294.5C 1549.83,1296.33 1548.33,1297.83 1546.5,1299C 1530.84,1299.5 1515.17,1299.67 1499.5,1299.5C 1499.67,1322.17 1499.5,1344.84 1499,1367.5C 1489.29,1429.87 1454.79,1471.71 1395.5,1493C 1388.61,1495.14 1381.61,1496.8 1374.5,1498C 1332.86,1499.45 1291.19,1499.95 1249.5,1499.5C 1249.67,1570.83 1249.5,1642.17 1249,1713.5C 1239.83,1761.33 1211.33,1789.83 1163.5,1799C 1054.17,1799.67 944.833,1799.67 835.5,1799C 787.667,1789.83 759.167,1761.33 750,1713.5C 749.5,1642.17 749.333,1570.83 749.5,1499.5C 710.499,1499.67 671.499,1499.5 632.5,1499C 569.647,1489.67 527.48,1455.17 506,1395.5C 503.233,1386.33 501.233,1377 500,1367.5C 499.333,1122.17 499.333,876.833 500,631.5C 509.49,572.026 541.99,530.859 597.5,508C 608.845,503.931 620.512,501.264 632.5,500C 671.499,499.5 710.499,499.333 749.5,499.5C 749.333,428.166 749.5,356.833 750,285.5C 759.346,237.654 787.846,208.987 835.5,199.5 Z"/></g>
<g><path style="opacity:1" fill="#7ba0b0" d="M 1140.5,224.5 C 1173.3,234.041 1192.8,255.708 1199,289.5C 1199.5,359.499 1199.67,429.499 1199.5,499.5C 1057.83,499.5 916.167,499.5 774.5,499.5C 774.333,428.833 774.5,358.166 775,287.5C 782.167,252.333 803.333,231.167 838.5,224C 939.181,223.18 1039.85,223.347 1140.5,224.5 Z"/></g>
<g><path style="opacity:1" fill="#6f98a4" d="M 1140.5,224.5 C 1185.53,223.581 1213.37,244.915 1224,288.5C 1224.5,358.833 1224.67,429.166 1224.5,499.5C 1216.17,499.5 1207.83,499.5 1199.5,499.5C 1199.67,429.499 1199.5,359.499 1199,289.5C 1192.8,255.708 1173.3,234.041 1140.5,224.5 Z"/></g>
<g><path style="opacity:1" fill="#d7ebfd" d="M 1337.5,524.5 C 1395,534.16 1431.5,567.16 1447,623.5C 1447.85,627.469 1448.52,631.469 1449,635.5C 1449.67,877.833 1449.67,1120.17 1449,1362.5C 1440.32,1418.52 1408.82,1454.69 1354.5,1471C 1348.66,1471.97 1342.99,1473.14 1337.5,1474.5C 1103.17,1474.67 868.833,1474.5 634.5,1474C 588.437,1466.89 555.271,1442.39 535,1400.5C 530.991,1390.81 527.991,1380.81 526,1370.5C 524.841,1246.52 524.341,1122.52 524.5,998.5C 524.667,877.167 524.833,755.833 525,634.5C 533.436,582.802 562.269,547.969 611.5,530C 619.055,527.822 626.722,526.156 634.5,525C 868.833,524.5 1103.17,524.333 1337.5,524.5 Z"/></g>
<g><path style="opacity:1" fill="#b2d9fd" d="M 1337.5,524.5 C 1392.51,522.578 1433.68,545.245 1461,592.5C 1467.75,606.095 1472.09,620.428 1474,635.5C 1474.67,877.833 1474.67,1120.17 1474,1362.5C 1465.32,1418.52 1433.82,1454.68 1379.5,1471C 1365.67,1474.04 1351.67,1475.21 1337.5,1474.5C 1342.99,1473.14 1348.66,1471.97 1354.5,1471C 1408.82,1454.69 1440.32,1418.52 1449,1362.5C 1449.67,1120.17 1449.67,877.833 1449,635.5C 1448.52,631.469 1447.85,627.469 1447,623.5C 1431.5,567.16 1395,534.16 1337.5,524.5 Z"/></g>
<g><path style="opacity:1" fill="#7ba1b0" d="M 1501.5,724.5 C 1509.83,724.5 1518.17,724.5 1526.5,724.5C 1526.5,757.833 1526.5,791.167 1526.5,824.5C 1518.17,824.5 1509.83,824.5 1501.5,824.5C 1501.5,791.167 1501.5,757.833 1501.5,724.5 Z"/></g>
<g><path style="opacity:1" fill="#bbccdc" d="M 876.5,763.5 C 875.508,763.328 874.842,763.662 874.5,764.5C 874.832,827.002 874.499,889.336 873.5,951.5C 873.5,951.167 873.5,950.833 873.5,950.5C 873.167,887.496 873.5,824.496 874.5,761.5C 875.522,761.855 876.189,762.522 876.5,763.5 Z"/></g>
<g><path style="opacity:1" fill="#010102" d="M 874.5,764.5 C 874.842,763.662 875.508,763.328 876.5,763.5C 931.456,809.447 986.456,855.447 1041.5,901.5C 1002.54,933.791 963.873,966.458 925.5,999.5C 964.167,1032.17 1002.83,1064.83 1041.5,1097.5C 986.456,1143.55 931.456,1189.55 876.5,1235.5C 875.508,1235.67 874.842,1235.34 874.5,1234.5C 875.832,1172 875.832,1109.33 874.5,1046.5C 873.893,1046.62 873.56,1046.96 873.5,1047.5C 872.833,1047.5 872.5,1047.83 872.5,1048.5C 840.868,1080.63 809.035,1112.63 777,1144.5C 768,1135.5 759,1126.5 750,1117.5C 749.333,1116.83 749.333,1116.17 750,1115.5C 788.653,1076.68 827.487,1038.01 866.5,999.5C 827.806,960.14 788.806,921.14 749.5,882.5C 758.486,873.014 767.652,863.681 777,854.5C 809.035,886.701 841.201,918.701 873.5,950.5C 873.5,950.833 873.5,951.167 873.5,951.5C 873.56,952.043 873.893,952.376 874.5,952.5C 875.832,889.668 875.832,827.001 874.5,764.5 Z"/></g>
<g><path style="opacity:1" fill="#2f3438" d="M 874.5,764.5 C 875.832,827.001 875.832,889.668 874.5,952.5C 873.893,952.376 873.56,952.043 873.5,951.5C 874.499,889.336 874.832,827.002 874.5,764.5 Z"/></g>
<g><path style="opacity:1" fill="#010102" d="M 1171.5,834.5 C 1228.98,883.491 1254.48,945.824 1248,1021.5C 1241.22,1079.07 1216.05,1126.73 1172.5,1164.5C 1163.17,1155.83 1154.17,1146.83 1145.5,1137.5C 1197.48,1090.74 1217.98,1032.74 1207,963.5C 1201.21,935.923 1189.54,911.256 1172,889.5C 1163.35,880.016 1154.52,870.682 1145.5,861.5C 1154.19,852.479 1162.85,843.479 1171.5,834.5 Z"/></g>
<g><path style="opacity:1" fill="#d6eafc" d="M 915.5,847.5 C 937.147,865.477 958.814,883.477 980.5,901.5C 959.09,920.58 937.09,938.913 914.5,956.5C 914.168,919.996 914.502,883.663 915.5,847.5 Z"/></g>
<g><path style="opacity:1" fill="#98a7b3" d="M 915.5,847.5 C 914.502,883.663 914.168,919.996 914.5,956.5C 913.827,939.072 913.494,920.906 913.5,902C 913.833,883.5 914.167,865 914.5,846.5C 915.107,846.624 915.44,846.957 915.5,847.5 Z"/></g>
<g><path style="opacity:1" fill="#020202" d="M 1130.5,1014.5 C 1132.05,1009.77 1132.71,1004.77 1132.5,999.5C 1132.5,995.651 1132.17,991.984 1131.5,988.5C 1129.3,967.444 1121.14,949.11 1107,933.5C 1101.32,927.985 1095.82,922.319 1090.5,916.5C 1099.17,907.167 1108.17,898.167 1117.5,889.5C 1175.34,941.546 1186.51,1002.21 1151,1071.5C 1141.85,1085.82 1130.68,1098.49 1117.5,1109.5C 1108.17,1100.83 1099.17,1091.83 1090.5,1082.5C 1100.98,1072.86 1110.14,1062.2 1118,1050.5C 1124.67,1039.31 1128.84,1027.31 1130.5,1014.5 Z"/></g>
<g><path style="opacity:1" fill="#020203" d="M 1061.5,944.5 C 1070.2,952.032 1078.03,960.366 1085,969.5C 1092.19,982.608 1094.52,996.608 1092,1011.5C 1089.95,1020.27 1086.28,1028.27 1081,1035.5C 1074.67,1041.83 1068.33,1048.17 1062,1054.5C 1052.83,1045.33 1043.67,1036.17 1034.5,1027C 1041.41,1020.76 1047.57,1013.93 1053,1006.5C 1054.13,1000.25 1053.46,994.245 1051,988.5C 1045.32,982.985 1039.82,977.319 1034.5,971.5C 1043.85,962.812 1052.85,953.812 1061.5,944.5 Z"/></g>
<g><path style="opacity:1" fill="#7c8892" d="M 1131.5,988.5 C 1132.17,991.984 1132.5,995.651 1132.5,999.5C 1132.71,1004.77 1132.05,1009.77 1130.5,1014.5C 1131.34,1005.86 1131.67,997.195 1131.5,988.5 Z"/></g>
<g><path style="opacity:1" fill="#98a7b3" d="M 915.5,1042.5 C 914.167,1078.83 914.167,1115.17 915.5,1151.5C 915.44,1152.04 915.107,1152.38 914.5,1152.5C 913.167,1115.5 913.167,1078.5 914.5,1041.5C 915.107,1041.62 915.44,1041.96 915.5,1042.5 Z"/></g>
<g><path style="opacity:1" fill="#d6eafc" d="M 915.5,1042.5 C 937.441,1060.44 959.107,1078.77 980.5,1097.5C 958.814,1115.52 937.147,1133.52 915.5,1151.5C 914.167,1115.17 914.167,1078.83 915.5,1042.5 Z"/></g>
<g><path style="opacity:1" fill="#2f3438" d="M 873.5,1047.5 C 873.56,1046.96 873.893,1046.62 874.5,1046.5C 875.832,1109.33 875.832,1172 874.5,1234.5C 874.832,1172 874.499,1109.66 873.5,1047.5 Z"/></g>
<g><path style="opacity:1" fill="#bbccdc" d="M 872.5,1048.5 C 872.5,1047.83 872.833,1047.5 873.5,1047.5C 874.499,1109.66 874.832,1172 874.5,1234.5C 874.842,1235.34 875.508,1235.67 876.5,1235.5C 876.189,1236.48 875.522,1237.14 874.5,1237.5C 873.833,1174.33 873.167,1111.33 872.5,1048.5 Z"/></g>
<g><path style="opacity:1" fill="#7ba1b0" d="M 1501.5,1174.5 C 1509.83,1174.5 1518.17,1174.5 1526.5,1174.5C 1526.5,1207.83 1526.5,1241.17 1526.5,1274.5C 1518.17,1274.5 1509.83,1274.5 1501.5,1274.5C 1501.5,1241.17 1501.5,1207.83 1501.5,1174.5 Z"/></g>
<g><path style="opacity:1" fill="#7ba0b0" d="M 1199.5,1499.5 C 1199.98,1571.86 1199.48,1644.2 1198,1716.5C 1190.4,1745.44 1172.57,1764.77 1144.5,1774.5C 1141.13,1774.67 1137.79,1775.17 1134.5,1776C 1035.83,1776.67 937.167,1776.67 838.5,1776C 802.633,1768.44 781.467,1746.61 775,1710.5C 774.5,1640.17 774.333,1569.83 774.5,1499.5C 916.167,1499.5 1057.83,1499.5 1199.5,1499.5 Z"/></g>
<g><path style="opacity:1" fill="#668c97" d="M 1199.5,1499.5 C 1207.83,1499.5 1216.17,1499.5 1224.5,1499.5C 1224.67,1568.83 1224.5,1638.17 1224,1707.5C 1218.81,1740.02 1200.65,1761.52 1169.5,1772C 1161.28,1773.88 1152.94,1774.71 1144.5,1774.5C 1172.57,1764.77 1190.4,1745.44 1198,1716.5C 1199.48,1644.2 1199.98,1571.86 1199.5,1499.5 Z"/></g>
</svg>
