<?xml version="1.0" encoding="UTF-8"?>
<!DOCTYPE svg PUBLIC "-//W3C//DTD SVG 1.1//EN" "http://www.w3.org/Graphics/SVG/1.1/DTD/svg11.dtd">
<svg xmlns="http://www.w3.org/2000/svg" version="1.1" width="2000px" height="2000px" style="shape-rendering:geometricPrecision; text-rendering:geometricPrecision; image-rendering:optimizeQuality; fill-rule:evenodd; clip-rule:evenodd" xmlns:xlink="http://www.w3.org/1999/xlink">
<g><path style="opacity:0.989" fill="#000000" d="M 818.5,249.5 C 905.834,249.333 993.167,249.5 1080.5,250C 1228.7,262.004 1349.53,325.171 1443,439.5C 1506.23,521.156 1541.57,613.823 1549,717.5C 1549.67,938.833 1549.67,1160.17 1549,1381.5C 1538.74,1516.51 1484.24,1629.67 1385.5,1721C 1298.74,1798.06 1197.08,1840.73 1080.5,1849C 993.167,1849.67 905.833,1849.67 818.5,1849C 670.305,1837 549.471,1773.83 456,1659.5C 392.766,1577.84 357.433,1485.18 350,1381.5C 349.333,1160.17 349.333,938.833 350,717.5C 360.862,577.945 418.362,462.112 522.5,370C 607.949,298.11 706.616,257.943 818.5,249.5 Z"/></g>
<g><path style="opacity:1" fill="#9b8a9c" d="M 843.5,274.5 C 874.996,273.502 906.662,273.168 938.5,273.5C 938.5,467.167 938.5,660.833 938.5,854.5C 750.167,854.5 561.833,854.5 373.5,854.5C 373.168,817.33 373.502,780.33 374.5,743.5C 374.5,780.167 374.5,816.833 374.5,853.5C 562.167,853.5 749.833,853.5 937.5,853.5C 937.5,660.5 937.5,467.5 937.5,274.5C 906.167,274.5 874.833,274.5 843.5,274.5 Z"/></g>
<g><path style="opacity:1" fill="#3f454a" d="M 1030.5,274.5 C 1007.83,274.5 985.167,274.5 962.5,274.5C 962.5,467.5 962.5,660.5 962.5,853.5C 1141.17,853.5 1319.83,853.5 1498.5,853.5C 1498.83,853.5 1499.17,853.5 1499.5,853.5C 1320.33,854.5 1141,854.833 961.5,854.5C 961.5,660.833 961.5,467.167 961.5,273.5C 984.673,273.169 1007.67,273.502 1030.5,274.5 Z"/></g>
<g><path style="opacity:1" fill="#d7ebfd" d="M 843.5,274.5 C 874.833,274.5 906.167,274.5 937.5,274.5C 937.5,467.5 937.5,660.5 937.5,853.5C 749.833,853.5 562.167,853.5 374.5,853.5C 374.5,816.833 374.5,780.167 374.5,743.5C 378.166,600.694 433.166,482.194 539.5,388C 627.103,314.398 728.436,276.564 843.5,274.5 Z"/></g>
<g><path style="opacity:1" fill="#d7ebfd" d="M 1030.5,274.5 C 1078.98,275.268 1126.31,282.601 1172.5,296.5C 1172.5,297.167 1172.83,297.5 1173.5,297.5C 1174.57,299.284 1176.24,300.451 1178.5,301C 1301.22,345.049 1392.05,425.216 1451,541.5C 1478.23,597.734 1493.89,657.067 1498,719.5C 1498.5,764.165 1498.67,808.832 1498.5,853.5C 1319.83,853.5 1141.17,853.5 962.5,853.5C 962.5,660.5 962.5,467.5 962.5,274.5C 985.167,274.5 1007.83,274.5 1030.5,274.5 Z"/></g>
<g><path style="opacity:1" fill="#b1d7fc" d="M 1172.5,296.5 C 1292.21,330.081 1385.05,399.414 1451,504.5C 1491.56,571.852 1514.23,644.852 1519,723.5C 1519.5,766.832 1519.67,810.165 1519.5,853.5C 1512.83,853.5 1506.17,853.5 1499.5,853.5C 1499.67,808.499 1499.5,763.499 1499,718.5C 1485.68,565.963 1417.18,445.463 1293.5,357C 1256.13,332.149 1216.13,312.315 1173.5,297.5C 1172.83,297.5 1172.5,297.167 1172.5,296.5 Z"/></g>
<g><path style="opacity:1" fill="#cce4fa" d="M 1173.5,297.5 C 1216.13,312.315 1256.13,332.149 1293.5,357C 1417.18,445.463 1485.68,565.963 1499,718.5C 1499.5,763.499 1499.67,808.499 1499.5,853.5C 1499.17,853.5 1498.83,853.5 1498.5,853.5C 1498.67,808.832 1498.5,764.165 1498,719.5C 1493.89,657.067 1478.23,597.734 1451,541.5C 1392.05,425.216 1301.22,345.049 1178.5,301C 1176.24,300.451 1174.57,299.284 1173.5,297.5 Z"/></g>
<g><path style="opacity:1" fill="#7ba0b0" d="M 1499.5,878.5 C 1499.67,1044.5 1499.5,1210.5 1499,1376.5C 1486.95,1528.02 1420.12,1648.52 1298.5,1738C 1255.73,1768.22 1209.06,1790.72 1158.5,1805.5C 1157.29,1805.75 1156.62,1806.41 1156.5,1807.5C 1137.22,1811.52 1117.88,1815.36 1098.5,1819C 1082.23,1821.26 1065.89,1822.93 1049.5,1824C 973.167,1824.67 896.833,1824.67 820.5,1824C 673.204,1811.79 555.038,1747.29 466,1630.5C 411.116,1554.53 380.783,1469.53 375,1375.5C 374.5,1209.83 374.333,1044.17 374.5,878.5C 749.5,878.5 1124.5,878.5 1499.5,878.5 Z"/></g>
<g><path style="opacity:1" fill="#678d99" d="M 1499.5,878.5 C 1506.17,878.5 1512.83,878.5 1519.5,878.5C 1519.67,1043.83 1519.5,1209.17 1519,1374.5C 1507.25,1526.54 1440.09,1647.04 1317.5,1736C 1268.29,1769.6 1214.63,1793.43 1156.5,1807.5C 1156.62,1806.41 1157.29,1805.75 1158.5,1805.5C 1209.06,1790.72 1255.73,1768.22 1298.5,1738C 1420.12,1648.52 1486.95,1528.02 1499,1376.5C 1499.5,1210.5 1499.67,1044.5 1499.5,878.5 Z"/></g>
<g><path style="opacity:1" fill="#465b64" d="M 725.5,968.5 C 719.158,968.334 712.825,968.5 706.5,969C 699.119,971.956 691.786,974.789 684.5,977.5C 690.104,974.361 695.771,971.194 701.5,968C 709.677,967.177 717.677,967.344 725.5,968.5 Z"/></g>
<g><path style="opacity:1" fill="#020203" d="M 725.5,968.5 C 732.044,968.553 738.378,969.72 744.5,972C 750.416,975.993 756.416,979.993 762.5,984C 769.748,990.456 775.581,997.956 780,1006.5C 780.409,1010.3 781.242,1013.96 782.5,1017.5C 783.127,1065.32 783.794,1112.99 784.5,1160.5C 785.601,1161.6 786.934,1161.76 788.5,1161C 790.993,1159.58 793.326,1158.08 795.5,1156.5C 810.219,1152.41 825.219,1151.41 840.5,1153.5C 847.503,1156.83 854.503,1160.17 861.5,1163.5C 861.756,1165.78 863.09,1166.94 865.5,1167C 869.359,1170.59 872.859,1174.42 876,1178.5C 878.541,1182.78 880.708,1187.28 882.5,1192C 883.833,1192.67 885.167,1192.67 886.5,1192C 889.938,1189.4 893.605,1187.23 897.5,1185.5C 905.649,1183.24 913.983,1181.57 922.5,1180.5C 928.189,1180.74 933.856,1181.24 939.5,1182C 943.009,1183.76 946.675,1184.93 950.5,1185.5C 951.873,1185.34 953.207,1185.51 954.5,1186C 957.547,1189.8 961.214,1192.64 965.5,1194.5C 967.833,1197.5 970.5,1200.17 973.5,1202.5C 976.637,1205.3 978.971,1208.63 980.5,1212.5C 980.343,1213.87 980.51,1215.21 981,1216.5C 982.756,1218.36 984.256,1220.36 985.5,1222.5C 986.466,1224.4 986.799,1226.4 986.5,1228.5C 987.873,1228.66 989.207,1228.49 990.5,1228C 993.867,1226.28 996.867,1224.11 999.5,1221.5C 1004.96,1219.27 1010.63,1217.93 1016.5,1217.5C 1024.83,1217.5 1033.17,1217.5 1041.5,1217.5C 1044.75,1218.87 1047.75,1220.7 1050.5,1223C 1053.78,1224.14 1057.11,1224.98 1060.5,1225.5C 1066.41,1230.07 1072.08,1235.07 1077.5,1240.5C 1078.92,1241.92 1079.92,1243.59 1080.5,1245.5C 1082.84,1250.03 1085.01,1254.7 1087,1259.5C 1087.33,1261.83 1087.67,1264.17 1088,1266.5C 1088.82,1267.82 1089.98,1268.49 1091.5,1268.5C 1091.5,1351.17 1091.5,1433.83 1091.5,1516.5C 1090.07,1516.88 1089.24,1517.88 1089,1519.5C 1086.83,1531.17 1084.67,1542.84 1082.5,1554.5C 1080.29,1560.39 1078.29,1566.39 1076.5,1572.5C 1076.5,1572.83 1076.5,1573.17 1076.5,1573.5C 1074.69,1576.44 1072.86,1579.44 1071,1582.5C 1065.03,1598.44 1057.36,1613.44 1048,1627.5C 1035.55,1645.09 1021.72,1661.43 1006.5,1676.5C 999.885,1680.12 994.219,1684.79 989.5,1690.5C 983.03,1693.96 977.03,1697.96 971.5,1702.5C 969.197,1704.32 966.864,1706.16 964.5,1708C 961.374,1708.99 958.374,1710.16 955.5,1711.5C 950.907,1712.86 946.574,1714.69 942.5,1717C 941.619,1717.71 940.953,1718.54 940.5,1719.5C 940.167,1719.5 939.833,1719.5 939.5,1719.5C 938.127,1719.34 936.793,1719.51 935.5,1720C 932.799,1721.83 930.132,1723.67 927.5,1725.5C 925.102,1725.26 923.102,1725.93 921.5,1727.5C 916.4,1727.71 911.734,1729.04 907.5,1731.5C 906.833,1731.5 906.5,1731.83 906.5,1732.5C 889.852,1735.33 873.185,1738.17 856.5,1741C 857.056,1741.38 857.389,1741.88 857.5,1742.5C 843.833,1742.5 830.167,1742.5 816.5,1742.5C 817.609,1741.71 818.942,1741.21 820.5,1741C 812.812,1740.57 805.146,1739.9 797.5,1739C 794.475,1738.87 791.808,1737.87 789.5,1736C 781.784,1735.45 774.118,1734.62 766.5,1733.5C 763.598,1732.42 760.598,1731.76 757.5,1731.5C 748.173,1728.83 739.173,1725.16 730.5,1720.5C 724.64,1717.41 718.64,1714.41 712.5,1711.5C 709.937,1710.91 707.604,1709.91 705.5,1708.5C 700.493,1703.93 694.826,1700.26 688.5,1697.5C 685.222,1696.19 682.222,1694.36 679.5,1692C 673.509,1686.02 667.176,1680.52 660.5,1675.5C 657.167,1671.5 653.5,1667.83 649.5,1664.5C 639.692,1654.37 630.692,1643.71 622.5,1632.5C 619.853,1627.86 616.853,1623.53 613.5,1619.5C 612.331,1616.49 610.664,1613.82 608.5,1611.5C 608.657,1610.13 608.49,1608.79 608,1607.5C 601.179,1597.86 595.012,1587.86 589.5,1577.5C 588.227,1574.39 586.727,1571.39 585,1568.5C 584.292,1567.62 583.458,1566.95 582.5,1566.5C 581.469,1561.44 579.136,1557.1 575.5,1553.5C 573.273,1547.12 569.94,1541.45 565.5,1536.5C 565.5,1536.17 565.5,1535.83 565.5,1535.5C 562.89,1530.23 559.89,1525.23 556.5,1520.5C 555.395,1517.18 553.729,1514.18 551.5,1511.5C 550.973,1508.77 550.14,1506.1 549,1503.5C 545.884,1500.9 543.384,1497.9 541.5,1494.5C 538.11,1488.28 534.943,1481.94 532,1475.5C 530.961,1474.29 529.794,1473.29 528.5,1472.5C 526.83,1469.83 525.164,1467.16 523.5,1464.5C 523.657,1463.13 523.49,1461.79 523,1460.5C 521.428,1457.89 519.594,1455.56 517.5,1453.5C 517.649,1452.45 517.483,1451.45 517,1450.5C 515.235,1448.61 513.735,1446.61 512.5,1444.5C 512.649,1443.45 512.483,1442.45 512,1441.5C 510.406,1439.47 508.906,1437.47 507.5,1435.5C 504.902,1429.34 501.569,1423.67 497.5,1418.5C 496.241,1414.35 494.241,1410.69 491.5,1407.5C 491.167,1406.5 490.5,1405.83 489.5,1405.5C 489.657,1404.13 489.49,1402.79 489,1401.5C 483.979,1392.98 478.812,1384.65 473.5,1376.5C 472.227,1373.39 470.727,1370.39 469,1367.5C 468.292,1366.62 467.458,1365.95 466.5,1365.5C 466.346,1363.03 465.346,1361.03 463.5,1359.5C 458.509,1350.86 453.509,1342.19 448.5,1333.5C 447.698,1332.05 447.198,1330.38 447,1328.5C 444.915,1326.92 443.415,1324.92 442.5,1322.5C 441.502,1314.19 441.169,1305.86 441.5,1297.5C 443.812,1293.66 446.146,1289.66 448.5,1285.5C 451.526,1282.8 454.526,1280.14 457.5,1277.5C 458.391,1276.89 459.391,1276.56 460.5,1276.5C 467.017,1273.09 473.683,1270.09 480.5,1267.5C 496.199,1264.89 511.865,1264.89 527.5,1267.5C 528.167,1267.5 528.833,1267.5 529.5,1267.5C 535.296,1270.22 541.296,1272.72 547.5,1275C 553.982,1278.66 560.315,1282.5 566.5,1286.5C 571.797,1292.3 577.297,1297.96 583,1303.5C 583.333,1304.83 583.667,1306.17 584,1307.5C 586.734,1311.71 589.567,1315.71 592.5,1319.5C 594.534,1327.17 598.2,1333.83 603.5,1339.5C 606.167,1343.83 608.833,1348.17 611.5,1352.5C 612.963,1356.1 614.463,1359.77 616,1363.5C 616.708,1364.38 617.542,1365.05 618.5,1365.5C 619.925,1366.92 620.925,1368.59 621.5,1370.5C 623.873,1377.69 627.873,1383.69 633.5,1388.5C 634.11,1389.39 634.443,1390.39 634.5,1391.5C 636.166,1393.83 638.499,1394.83 641.5,1394.5C 644.488,1394.81 646.821,1393.81 648.5,1391.5C 649.167,1391.5 649.5,1391.17 649.5,1390.5C 652.044,1389.29 653.378,1387.29 653.5,1384.5C 654.333,1265 654.833,1145.33 655,1025.5C 655.958,1020.44 657.125,1015.44 658.5,1010.5C 658.5,1009.83 658.5,1009.17 658.5,1008.5C 660.562,1004.04 662.895,999.711 665.5,995.5C 669.515,992.484 672.848,988.817 675.5,984.5C 678.786,982.549 681.786,980.215 684.5,977.5C 691.786,974.789 699.119,971.956 706.5,969C 712.825,968.5 719.158,968.334 725.5,968.5 Z"/></g>
<g><path style="opacity:1" fill="#3a4b53" d="M 675.5,984.5 C 672.848,988.817 669.515,992.484 665.5,995.5C 665.539,994.417 665.873,993.417 666.5,992.5C 669.591,989.731 672.591,987.065 675.5,984.5 Z"/></g>
<g><path style="opacity:1" fill="#a3b6c4" d="M 739.5,1003.5 C 735.102,1001.64 730.435,1000.14 725.5,999C 715.144,997.378 705.81,999.545 697.5,1005.5C 700.301,1002.36 703.634,1000.03 707.5,998.5C 713.26,996.481 719.26,995.981 725.5,997C 728.569,998.846 731.902,999.846 735.5,1000C 736.731,1001.4 738.064,1002.57 739.5,1003.5 Z"/></g>
<g><path style="opacity:1" fill="#d7ebfd" d="M 739.5,1003.5 C 740.167,1003.83 740.833,1004.17 741.5,1004.5C 744.118,1006.45 746.452,1008.79 748.5,1011.5C 750.327,1013.97 751.66,1016.64 752.5,1019.5C 752.833,1020.83 753.167,1022.17 753.5,1023.5C 752.883,1023.39 752.383,1023.06 752,1022.5C 751.167,1117.17 751.333,1211.84 752.5,1306.5C 753.5,1213.17 753.833,1119.84 753.5,1026.5C 753.834,1120 754.834,1213.34 756.5,1306.5C 756.328,1307.49 756.662,1308.16 757.5,1308.5C 757.273,1310.93 758.273,1312.6 760.5,1313.5C 760.5,1314.5 760.5,1315.5 760.5,1316.5C 763.379,1318.12 766.546,1319.12 770,1319.5C 773.875,1319.64 777.042,1318.31 779.5,1315.5C 782.822,1313.44 784.989,1310.44 786,1306.5C 786.5,1272.83 786.667,1239.17 786.5,1205.5C 787.458,1205.05 788.292,1204.38 789,1203.5C 790.249,1200.07 791.749,1196.74 793.5,1193.5C 797.836,1190.49 801.836,1187.16 805.5,1183.5C 806.167,1183.5 806.833,1183.5 807.5,1183.5C 808.756,1183.54 809.756,1183.04 810.5,1182C 820.026,1181.02 829.359,1181.52 838.5,1183.5C 841.218,1185.86 844.218,1187.86 847.5,1189.5C 848.262,1193.18 850.262,1195.84 853.5,1197.5C 854.719,1201.73 855.886,1206.07 857,1210.5C 857.333,1243.83 857.667,1277.17 858,1310.5C 859.371,1313.37 861.538,1315.37 864.5,1316.5C 866.062,1316.73 867.395,1317.4 868.5,1318.5C 869.793,1319.16 871.293,1319.49 873,1319.5C 876.432,1318.58 879.932,1317.92 883.5,1317.5C 883.366,1315.71 883.699,1314.04 884.5,1312.5C 884.5,1312.17 884.5,1311.83 884.5,1311.5C 886.61,1310.55 887.777,1308.88 888,1306.5C 888.333,1282.83 888.667,1259.17 889,1235.5C 890.667,1232.83 892.333,1230.17 894,1227.5C 894.49,1226.21 894.657,1224.87 894.5,1223.5C 897.604,1220.9 900.604,1218.07 903.5,1215C 904.448,1214.52 905.448,1214.35 906.5,1214.5C 915.708,1210.53 925.375,1209.53 935.5,1211.5C 946.582,1215.25 953.915,1222.58 957.5,1233.5C 957.248,1236.32 957.748,1238.99 959,1241.5C 959.168,1265.67 959.668,1289.67 960.5,1313.5C 960.238,1314.98 960.571,1316.31 961.5,1317.5C 962.735,1318.34 963.735,1319.34 964.5,1320.5C 965.5,1322.17 966.833,1323.5 968.5,1324.5C 973.135,1326.95 977.802,1326.95 982.5,1324.5C 982.5,1324.17 982.5,1323.83 982.5,1323.5C 983.167,1323.17 983.833,1322.83 984.5,1322.5C 986.74,1321.43 988.574,1319.77 990,1317.5C 990.198,1302.12 990.698,1286.79 991.5,1271.5C 991.5,1270.83 991.5,1270.17 991.5,1269.5C 992.492,1267.54 993.492,1265.54 994.5,1263.5C 998.5,1258.83 1002.83,1254.5 1007.5,1250.5C 1010.22,1248.88 1013.22,1248.21 1016.5,1248.5C 1021.92,1246.49 1027.59,1245.99 1033.5,1247C 1039.67,1249.55 1045.67,1252.39 1051.5,1255.5C 1054.65,1257.31 1056.65,1259.98 1057.5,1263.5C 1058.74,1267.51 1060.08,1271.51 1061.5,1275.5C 1060.88,1275.39 1060.38,1275.06 1060,1274.5C 1059.33,1349.83 1059.33,1425.17 1060,1500.5C 1060.38,1499.94 1060.88,1499.61 1061.5,1499.5C 1060.24,1505.39 1059.57,1511.39 1059.5,1517.5C 1058.92,1525.45 1057.58,1533.12 1055.5,1540.5C 1053.71,1546.11 1051.87,1551.78 1050,1557.5C 1047.75,1560.02 1046.92,1563.02 1047.5,1566.5C 1043.79,1572.79 1041.13,1579.46 1039.5,1586.5C 1038.5,1586.5 1037.5,1586.5 1036.5,1586.5C 1036.71,1589.45 1036.05,1592.12 1034.5,1594.5C 1031.94,1598.17 1029.94,1602.17 1028.5,1606.5C 1026.43,1607.26 1024.77,1608.6 1023.5,1610.5C 1020.87,1616.07 1017.87,1621.41 1014.5,1626.5C 1008.12,1630.55 1003.12,1635.88 999.5,1642.5C 996.833,1645.83 993.833,1648.83 990.5,1651.5C 985.971,1653.35 982.305,1656.35 979.5,1660.5C 978.167,1661.17 977.167,1662.17 976.5,1663.5C 971.646,1665.35 967.646,1668.35 964.5,1672.5C 964.5,1672.83 964.5,1673.17 964.5,1673.5C 955.787,1677.23 947.454,1681.4 939.5,1686C 937.602,1687.42 935.936,1688.92 934.5,1690.5C 924.89,1693.93 915.224,1697.1 905.5,1700C 904.619,1700.71 903.953,1701.54 903.5,1702.5C 899.225,1703.65 894.892,1704.65 890.5,1705.5C 884.706,1707.07 878.706,1707.9 872.5,1708C 871.058,1708.38 870.058,1709.21 869.5,1710.5C 865.702,1711.48 861.702,1711.82 857.5,1711.5C 834.05,1713.06 810.717,1712.06 787.5,1708.5C 782.833,1707.5 778.167,1706.5 773.5,1705.5C 766.461,1701.5 758.795,1698.84 750.5,1697.5C 748.622,1696.79 746.955,1695.63 745.5,1694C 743.482,1693.5 741.482,1693 739.5,1692.5C 736.221,1691.9 733.221,1690.57 730.5,1688.5C 730.047,1687.54 729.381,1686.71 728.5,1686C 722.208,1683.07 715.875,1680.07 709.5,1677C 704.836,1672.16 699.502,1668.33 693.5,1665.5C 692.833,1665.17 692.167,1664.83 691.5,1664.5C 686.801,1659.8 681.801,1655.47 676.5,1651.5C 675.167,1650.83 674.167,1649.83 673.5,1648.5C 672.5,1645.5 670.5,1643.5 667.5,1642.5C 665.5,1641.17 663.833,1639.5 662.5,1637.5C 661.92,1635.25 660.587,1633.58 658.5,1632.5C 656.906,1629.24 654.573,1626.57 651.5,1624.5C 651.071,1621.85 649.738,1619.85 647.5,1618.5C 647.262,1616.6 646.262,1615.26 644.5,1614.5C 643.833,1612.83 643.167,1611.17 642.5,1609.5C 641.217,1607.39 640.384,1605.06 640,1602.5C 637.017,1598.68 633.85,1595.02 630.5,1591.5C 627.255,1587.19 624.589,1582.53 622.5,1577.5C 621.964,1574.45 621.131,1571.45 620,1568.5C 617.667,1567.5 616,1565.83 615,1563.5C 613.667,1560.17 612.333,1556.83 611,1553.5C 608.897,1551.04 607.064,1548.37 605.5,1545.5C 600.515,1537.46 596.015,1529.13 592,1520.5C 590.989,1519.66 589.822,1519.33 588.5,1519.5C 588.785,1517.71 588.452,1516.05 587.5,1514.5C 584.468,1509.77 581.968,1504.77 580,1499.5C 578.16,1497.66 576.493,1495.66 575,1493.5C 574.495,1489.18 572.328,1486.18 568.5,1484.5C 568.771,1482.62 568.104,1481.29 566.5,1480.5C 565.626,1477.08 564.46,1473.75 563,1470.5C 559.077,1464.91 555.244,1459.24 551.5,1453.5C 549.978,1449.05 548.311,1444.72 546.5,1440.5C 545.5,1440.5 544.5,1440.5 543.5,1440.5C 543.12,1437.26 541.953,1434.26 540,1431.5C 539.329,1430.75 538.496,1430.41 537.5,1430.5C 535.686,1426.38 533.686,1422.38 531.5,1418.5C 530.504,1418.59 529.671,1418.25 529,1417.5C 528.616,1414.94 527.783,1412.61 526.5,1410.5C 524.785,1407.41 523.451,1404.07 522.5,1400.5C 521.817,1400.14 521.15,1399.8 520.5,1399.5C 519.542,1399.05 518.708,1398.38 518,1397.5C 515.932,1393.14 513.766,1388.81 511.5,1384.5C 508.53,1378.57 505.03,1372.9 501,1367.5C 499.451,1362.28 497.451,1357.28 495,1352.5C 493.077,1350.2 491.244,1347.86 489.5,1345.5C 488.37,1343.69 487.704,1341.69 487.5,1339.5C 487.5,1338.5 487.5,1337.5 487.5,1336.5C 486.5,1336.5 485.5,1336.5 484.5,1336.5C 484.191,1332.35 482.358,1329.02 479,1326.5C 477.701,1323.85 476.368,1321.19 475,1318.5C 474.329,1317.75 473.496,1317.41 472.5,1317.5C 472.727,1315.07 471.727,1313.4 469.5,1312.5C 469.065,1309.16 469.732,1306.16 471.5,1303.5C 473.189,1302.07 475.189,1301.24 477.5,1301C 478.381,1300.29 479.047,1299.46 479.5,1298.5C 487.717,1296.76 496.05,1295.43 504.5,1294.5C 507.5,1294.67 510.5,1294.83 513.5,1295C 520.249,1296.2 526.915,1297.7 533.5,1299.5C 535.662,1301.9 538.329,1303.56 541.5,1304.5C 543.592,1307.72 546.592,1309.72 550.5,1310.5C 552.833,1312.17 554.833,1314.17 556.5,1316.5C 556.238,1317.98 556.571,1319.31 557.5,1320.5C 558.945,1322.39 560.612,1324.06 562.5,1325.5C 564.025,1331.24 567.025,1335.91 571.5,1339.5C 571.263,1340.79 571.596,1341.79 572.5,1342.5C 573.782,1346.27 575.282,1349.94 577,1353.5C 582.339,1360.7 586.839,1368.36 590.5,1376.5C 593.569,1381.73 596.402,1387.06 599,1392.5C 599.671,1393.25 600.504,1393.59 601.5,1393.5C 601.215,1395.29 601.548,1396.95 602.5,1398.5C 604.235,1401.11 606.235,1403.44 608.5,1405.5C 608.833,1406.5 609.5,1407.17 610.5,1407.5C 611.167,1410.17 612.833,1411.83 615.5,1412.5C 615.5,1413.5 615.5,1414.5 615.5,1415.5C 618.747,1417.33 622.08,1419.17 625.5,1421C 633.349,1423.16 641.349,1423.99 649.5,1423.5C 652.644,1422.13 655.977,1421.13 659.5,1420.5C 661.534,1419.17 663.534,1417.83 665.5,1416.5C 665.833,1415.83 666.167,1415.17 666.5,1414.5C 670.5,1412.5 673.5,1409.5 675.5,1405.5C 675.5,1404.83 675.5,1404.17 675.5,1403.5C 677.621,1401.11 679.454,1398.44 681,1395.5C 681.495,1393.53 681.662,1391.53 681.5,1389.5C 681.833,1389.5 682.167,1389.5 682.5,1389.5C 683.29,1388.39 683.79,1387.06 684,1385.5C 684.167,1267.33 684.667,1149.33 685.5,1031.5C 685.167,1150.17 685.5,1268.84 686.5,1387.5C 686.833,1326.5 687.167,1265.5 687.5,1204.5C 687.5,1143.16 686.833,1082.16 685.5,1021.5C 687.213,1018.71 688.546,1015.71 689.5,1012.5C 691.148,1010.57 692.815,1008.57 694.5,1006.5C 695.325,1005.61 696.325,1005.28 697.5,1005.5C 705.81,999.545 715.144,997.378 725.5,999C 730.435,1000.14 735.102,1001.64 739.5,1003.5 Z"/></g>
<g><path style="opacity:1" fill="#4d575f" d="M 741.5,1004.5 C 740.833,1004.17 740.167,1003.83 739.5,1003.5C 738.064,1002.57 736.731,1001.4 735.5,1000C 731.902,999.846 728.569,998.846 725.5,997C 719.26,995.981 713.26,996.481 707.5,998.5C 707.804,997.85 708.137,997.183 708.5,996.5C 714.807,995.336 721.141,995.169 727.5,996C 730.139,997.946 733.139,998.946 736.5,999C 738.766,1000.43 740.432,1002.26 741.5,1004.5 Z"/></g>
<g><path style="opacity:1" fill="#5f6c74" d="M 707.5,998.5 C 703.634,1000.03 700.301,1002.36 697.5,1005.5C 696.325,1005.28 695.325,1005.61 694.5,1006.5C 692.815,1008.57 691.148,1010.57 689.5,1012.5C 690.051,1009.73 691.384,1007.4 693.5,1005.5C 696.417,1003.28 699.417,1001.11 702.5,999C 704.134,998.506 705.801,998.34 707.5,998.5 Z"/></g>
<g><path style="opacity:1" fill="#4a606a" d="M 665.5,995.5 C 662.895,999.711 660.562,1004.04 658.5,1008.5C 659.048,1003.06 661.382,998.728 665.5,995.5 Z"/></g>
<g><path style="opacity:1" fill="#59646d" d="M 748.5,1011.5 C 751.277,1013.64 753.444,1016.31 755,1019.5C 755.49,1020.79 755.657,1022.13 755.5,1023.5C 754.857,1021.92 753.857,1020.59 752.5,1019.5C 751.66,1016.64 750.327,1013.97 748.5,1011.5 Z"/></g>
<g><path style="opacity:1" fill="#91a3b0" d="M 752.5,1019.5 C 753.857,1020.59 754.857,1021.92 755.5,1023.5C 755.5,1023.83 755.5,1024.17 755.5,1024.5C 756.49,1118.48 756.824,1212.48 756.5,1306.5C 754.834,1213.34 753.834,1120 753.5,1026.5C 753.5,1025.5 753.5,1024.5 753.5,1023.5C 753.167,1022.17 752.833,1020.83 752.5,1019.5 Z"/></g>
<g><path style="opacity:1" fill="#7092a0" d="M 654.5,1017.5 C 654.291,1018.92 653.791,1020.26 653,1021.5C 652.833,1143 652.333,1264.33 651.5,1385.5C 651.167,1263.16 651.5,1140.83 652.5,1018.5C 653.183,1018.14 653.85,1017.8 654.5,1017.5 Z"/></g>
<g><path style="opacity:1" fill="#4c626c" d="M 654.5,1017.5 C 654.833,1017.5 655.167,1017.5 655.5,1017.5C 655.628,1019.65 655.128,1021.65 654,1023.5C 653.5,1143.83 653.333,1264.17 653.5,1384.5C 653.378,1387.29 652.044,1389.29 649.5,1390.5C 650.167,1388.83 650.833,1387.17 651.5,1385.5C 652.333,1264.33 652.833,1143 653,1021.5C 653.791,1020.26 654.291,1018.92 654.5,1017.5 Z"/></g>
<g><path style="opacity:1" fill="#242f34" d="M 658.5,1010.5 C 657.125,1015.44 655.958,1020.44 655,1025.5C 654.833,1145.33 654.333,1265 653.5,1384.5C 653.333,1264.17 653.5,1143.83 654,1023.5C 655.128,1021.65 655.628,1019.65 655.5,1017.5C 654.979,1014.36 655.979,1012.03 658.5,1010.5 Z"/></g>
<g><path style="opacity:1" fill="#374045" d="M 686.5,1014.5 C 685.186,1018.69 684.186,1023.02 683.5,1027.5C 682.778,1027.92 682.278,1028.58 682,1029.5C 681.5,1149.5 681.333,1269.5 681.5,1389.5C 681.662,1391.53 681.495,1393.53 681,1395.5C 679.454,1398.44 677.621,1401.11 675.5,1403.5C 676.481,1399.9 677.981,1396.57 680,1393.5C 680.167,1270.83 680.667,1148.17 681.5,1025.5C 682.799,1021.58 684.466,1017.91 686.5,1014.5 Z"/></g>
<g><path style="opacity:1" fill="#8395a1" d="M 683.5,1027.5 C 683.824,1148.18 683.491,1268.85 682.5,1389.5C 682.167,1389.5 681.833,1389.5 681.5,1389.5C 681.333,1269.5 681.5,1149.5 682,1029.5C 682.278,1028.58 682.778,1027.92 683.5,1027.5 Z"/></g>
<g><path style="opacity:1" fill="#def3fe" d="M 685.5,1021.5 C 686.833,1082.16 687.5,1143.16 687.5,1204.5C 687.167,1265.5 686.833,1326.5 686.5,1387.5C 685.5,1268.84 685.167,1150.17 685.5,1031.5C 685.5,1028.17 685.5,1024.83 685.5,1021.5 Z"/></g>
<g><path style="opacity:1" fill="#e0f4fd" d="M 753.5,1023.5 C 753.5,1024.5 753.5,1025.5 753.5,1026.5C 753.833,1119.84 753.5,1213.17 752.5,1306.5C 751.333,1211.84 751.167,1117.17 752,1022.5C 752.383,1023.06 752.883,1023.39 753.5,1023.5 Z"/></g>
<g><path style="opacity:1" fill="#192225" d="M 782.5,1017.5 C 783.338,1017.84 783.672,1018.51 783.5,1019.5C 784.48,1066.48 784.814,1113.48 784.5,1160.5C 783.794,1112.99 783.127,1065.32 782.5,1017.5 Z"/></g>
<g><path style="opacity:1" fill="#37474f" d="M 783.5,1019.5 C 783.833,1019.5 784.167,1019.5 784.5,1019.5C 785.49,1066.12 785.823,1112.79 785.5,1159.5C 787.099,1159.77 788.432,1159.43 789.5,1158.5C 791.421,1157.64 793.421,1156.97 795.5,1156.5C 793.326,1158.08 790.993,1159.58 788.5,1161C 786.934,1161.76 785.601,1161.6 784.5,1160.5C 784.814,1113.48 784.48,1066.48 783.5,1019.5 Z"/></g>
<g><path style="opacity:1" fill="#5b7682" d="M 784.5,1019.5 C 785.117,1019.61 785.617,1019.94 786,1020.5C 786.5,1066.5 786.667,1112.5 786.5,1158.5C 787.5,1158.5 788.5,1158.5 789.5,1158.5C 788.432,1159.43 787.099,1159.77 785.5,1159.5C 785.823,1112.79 785.49,1066.12 784.5,1019.5 Z"/></g>
<g><path style="opacity:1" fill="#b2c6d6" d="M 689.5,1012.5 C 688.546,1015.71 687.213,1018.71 685.5,1021.5C 685.5,1024.83 685.5,1028.17 685.5,1031.5C 684.667,1149.33 684.167,1267.33 684,1385.5C 683.79,1387.06 683.29,1388.39 682.5,1389.5C 683.491,1268.85 683.824,1148.18 683.5,1027.5C 684.186,1023.02 685.186,1018.69 686.5,1014.5C 687.5,1013.83 688.5,1013.17 689.5,1012.5 Z"/></g>
<g><path style="opacity:1" fill="#4f5c64" d="M 755.5,1024.5 C 756.222,1024.92 756.722,1025.58 757,1026.5C 757.5,1120.5 757.667,1214.5 757.5,1308.5C 756.662,1308.16 756.328,1307.49 756.5,1306.5C 756.824,1212.48 756.49,1118.48 755.5,1024.5 Z"/></g>
<g><path style="opacity:1" fill="#4e656f" d="M 835.5,1151.5 C 826.5,1150.17 817.5,1150.17 808.5,1151.5C 812.223,1150 816.223,1149.34 820.5,1149.5C 825.734,1149.46 830.734,1150.13 835.5,1151.5 Z"/></g>
<g><path style="opacity:1" fill="#232d32" d="M 835.5,1151.5 C 837.781,1151.08 839.448,1151.74 840.5,1153.5C 825.219,1151.41 810.219,1152.41 795.5,1156.5C 795.973,1155.09 796.973,1154.43 798.5,1154.5C 801.916,1154.47 804.916,1153.47 807.5,1151.5C 807.833,1151.5 808.167,1151.5 808.5,1151.5C 817.5,1150.17 826.5,1150.17 835.5,1151.5 Z"/></g>
<g><path style="opacity:1" fill="#4e656f" d="M 807.5,1151.5 C 804.916,1153.47 801.916,1154.47 798.5,1154.5C 798.953,1153.54 799.619,1152.71 800.5,1152C 802.81,1151.5 805.143,1151.34 807.5,1151.5 Z"/></g>
<g><path style="opacity:1" fill="#556e79" d="M 840.5,1153.5 C 845.237,1154.37 849.904,1155.53 854.5,1157C 857.438,1158.56 859.772,1160.73 861.5,1163.5C 854.503,1160.17 847.503,1156.83 840.5,1153.5 Z"/></g>
<g><path style="opacity:1" fill="#515c63" d="M 833.5,1180.5 C 825.493,1180.33 817.493,1180.5 809.5,1181C 808.619,1181.71 807.953,1182.54 807.5,1183.5C 806.833,1183.5 806.167,1183.5 805.5,1183.5C 804.391,1183.56 803.391,1183.89 802.5,1184.5C 804.336,1182.99 806.336,1181.49 808.5,1180C 817.034,1177.92 825.367,1178.09 833.5,1180.5 Z"/></g>
<g><path style="opacity:1" fill="#9eb1c0" d="M 833.5,1180.5 C 834.913,1181.93 836.58,1182.93 838.5,1183.5C 829.359,1181.52 820.026,1181.02 810.5,1182C 809.756,1183.04 808.756,1183.54 807.5,1183.5C 807.953,1182.54 808.619,1181.71 809.5,1181C 817.493,1180.5 825.493,1180.33 833.5,1180.5 Z"/></g>
<g><path style="opacity:1" fill="#475c66" d="M 950.5,1185.5 C 946.675,1184.93 943.009,1183.76 939.5,1182C 933.856,1181.24 928.189,1180.74 922.5,1180.5C 913.983,1181.57 905.649,1183.24 897.5,1185.5C 900.917,1183.36 904.583,1181.53 908.5,1180C 919.515,1179.17 930.515,1179.33 941.5,1180.5C 944.479,1182.37 947.479,1184.03 950.5,1185.5 Z"/></g>
<g><path style="opacity:1" fill="#65737d" d="M 838.5,1183.5 C 842.25,1184.41 845.25,1186.41 847.5,1189.5C 844.218,1187.86 841.218,1185.86 838.5,1183.5 Z"/></g>
<g><path style="opacity:1" fill="#71808b" d="M 847.5,1189.5 C 850.471,1191.44 852.471,1194.11 853.5,1197.5C 850.262,1195.84 848.262,1193.18 847.5,1189.5 Z"/></g>
<g><path style="opacity:1" fill="#455962" d="M 965.5,1194.5 C 969.167,1196.17 971.833,1198.83 973.5,1202.5C 970.5,1200.17 967.833,1197.5 965.5,1194.5 Z"/></g>
<g><path style="opacity:1" fill="#93a5b2" d="M 805.5,1183.5 C 801.836,1187.16 797.836,1190.49 793.5,1193.5C 791.749,1196.74 790.249,1200.07 789,1203.5C 788.292,1204.38 787.458,1205.05 786.5,1205.5C 787.684,1202.43 789.017,1199.43 790.5,1196.5C 793.521,1191.48 797.521,1187.48 802.5,1184.5C 803.391,1183.89 804.391,1183.56 805.5,1183.5 Z"/></g>
<g><path style="opacity:1" fill="#3d454b" d="M 935.5,1210.5 C 927.439,1207.87 919.439,1207.87 911.5,1210.5C 911.953,1209.54 912.619,1208.71 913.5,1208C 920.167,1207.33 926.833,1207.33 933.5,1208C 934.381,1208.71 935.047,1209.54 935.5,1210.5 Z"/></g>
<g><path style="opacity:1" fill="#a6b9c7" d="M 935.5,1210.5 C 935.5,1210.83 935.5,1211.17 935.5,1211.5C 925.375,1209.53 915.708,1210.53 906.5,1214.5C 907.622,1212.44 909.289,1211.11 911.5,1210.5C 919.439,1207.87 927.439,1207.87 935.5,1210.5 Z"/></g>
<g><path style="opacity:1" fill="#e5fafe" d="M 787.5,1207.5 C 788.833,1223.99 789.5,1240.82 789.5,1258C 789.167,1274.83 788.833,1291.67 788.5,1308.5C 787.5,1274.84 787.167,1241.17 787.5,1207.5 Z"/></g>
<g><path style="opacity:1" fill="#9aafbd" d="M 853.5,1197.5 C 855.568,1200.17 856.901,1203.17 857.5,1206.5C 858.154,1240.96 858.82,1275.29 859.5,1309.5C 860.754,1312.09 862.42,1314.43 864.5,1316.5C 861.538,1315.37 859.371,1313.37 858,1310.5C 857.667,1277.17 857.333,1243.83 857,1210.5C 855.886,1206.07 854.719,1201.73 853.5,1197.5 Z"/></g>
<g><path style="opacity:1" fill="#66757e" d="M 857.5,1206.5 C 858.906,1206.97 859.573,1207.97 859.5,1209.5C 859.5,1242.83 859.5,1276.17 859.5,1309.5C 858.82,1275.29 858.154,1240.96 857.5,1206.5 Z"/></g>
<g><path style="opacity:1" fill="#2b3135" d="M 859.5,1209.5 C 860.332,1243 860.832,1276.66 861,1310.5C 863.503,1313.53 866.67,1315.36 870.5,1316C 873.221,1316.6 875.887,1316.43 878.5,1315.5C 877.942,1316.79 876.942,1317.62 875.5,1318C 873.19,1318.5 870.857,1318.66 868.5,1318.5C 867.395,1317.4 866.062,1316.73 864.5,1316.5C 862.42,1314.43 860.754,1312.09 859.5,1309.5C 859.5,1276.17 859.5,1242.83 859.5,1209.5 Z"/></g>
<g><path style="opacity:1" fill="#3c4e56" d="M 1041.5,1217.5 C 1033.17,1217.5 1024.83,1217.5 1016.5,1217.5C 1016.92,1216.78 1017.58,1216.28 1018.5,1216C 1026.39,1215.2 1034.06,1215.7 1041.5,1217.5 Z"/></g>
<g><path style="opacity:1" fill="#73828d" d="M 790.5,1196.5 C 789.017,1199.43 787.684,1202.43 786.5,1205.5C 786.667,1239.17 786.5,1272.83 786,1306.5C 784.989,1310.44 782.822,1313.44 779.5,1315.5C 781.152,1313.53 782.319,1311.2 783,1308.5C 783.333,1275.83 783.667,1243.17 784,1210.5C 785.06,1206.1 786.393,1201.76 788,1197.5C 788.671,1196.75 789.504,1196.41 790.5,1196.5 Z"/></g>
<g><path style="opacity:1" fill="#485e67" d="M 980.5,1212.5 C 983.09,1215.19 985.257,1218.19 987,1221.5C 987.494,1223.13 987.66,1224.8 987.5,1226.5C 991.5,1224.83 995.5,1223.17 999.5,1221.5C 996.867,1224.11 993.867,1226.28 990.5,1228C 989.207,1228.49 987.873,1228.66 986.5,1228.5C 986.799,1226.4 986.466,1224.4 985.5,1222.5C 984.256,1220.36 982.756,1218.36 981,1216.5C 980.51,1215.21 980.343,1213.87 980.5,1212.5 Z"/></g>
<g><path style="opacity:1" fill="#455a63" d="M 1041.5,1217.5 C 1048.86,1217.96 1055.2,1220.62 1060.5,1225.5C 1057.11,1224.98 1053.78,1224.14 1050.5,1223C 1047.75,1220.7 1044.75,1218.87 1041.5,1217.5 Z"/></g>
<g><path style="opacity:1" fill="#4f6671" d="M 1060.5,1225.5 C 1067.7,1228.7 1073.37,1233.7 1077.5,1240.5C 1072.08,1235.07 1066.41,1230.07 1060.5,1225.5 Z"/></g>
<g><path style="opacity:1" fill="#8a98a5" d="M 894.5,1223.5 C 894.657,1224.87 894.49,1226.21 894,1227.5C 892.333,1230.17 890.667,1232.83 889,1235.5C 888.667,1259.17 888.333,1282.83 888,1306.5C 887.777,1308.88 886.61,1310.55 884.5,1311.5C 885.63,1309.69 886.296,1307.69 886.5,1305.5C 887.332,1282 887.832,1258.34 888,1234.5C 889.731,1230.51 891.898,1226.85 894.5,1223.5 Z"/></g>
<g><path style="opacity:1" fill="#697680" d="M 935.5,1211.5 C 935.5,1211.17 935.5,1210.83 935.5,1210.5C 942.403,1212.19 948.236,1215.86 953,1221.5C 955.433,1225.37 957.6,1229.37 959.5,1233.5C 959.783,1234.29 960.283,1234.96 961,1235.5C 961.168,1262.34 961.668,1289 962.5,1315.5C 963.942,1316.82 964.608,1318.49 964.5,1320.5C 963.735,1319.34 962.735,1318.34 961.5,1317.5C 960.571,1316.31 960.238,1314.98 960.5,1313.5C 960.667,1288.5 960.5,1263.5 960,1238.5C 959.243,1236.69 958.41,1235.02 957.5,1233.5C 953.915,1222.58 946.582,1215.25 935.5,1211.5 Z"/></g>
<g><path style="opacity:1" fill="#454e55" d="M 911.5,1210.5 C 909.289,1211.11 907.622,1212.44 906.5,1214.5C 905.448,1214.35 904.448,1214.52 903.5,1215C 900.604,1218.07 897.604,1220.9 894.5,1223.5C 891.898,1226.85 889.731,1230.51 888,1234.5C 887.832,1258.34 887.332,1282 886.5,1305.5C 886.333,1281.5 886.5,1257.5 887,1233.5C 891.409,1224.37 897.909,1217.04 906.5,1211.5C 908.045,1210.55 909.712,1210.21 911.5,1210.5 Z"/></g>
<g><path style="opacity:1" fill="#1b1f21" d="M 959.5,1233.5 C 960.496,1233.41 961.329,1233.75 962,1234.5C 962.5,1261.5 962.667,1288.5 962.5,1315.5C 961.668,1289 961.168,1262.34 961,1235.5C 960.283,1234.96 959.783,1234.29 959.5,1233.5 Z"/></g>
<g><path style="opacity:1" fill="#adc2d0" d="M 957.5,1233.5 C 958.41,1235.02 959.243,1236.69 960,1238.5C 960.5,1263.5 960.667,1288.5 960.5,1313.5C 959.668,1289.67 959.168,1265.67 959,1241.5C 957.748,1238.99 957.248,1236.32 957.5,1233.5 Z"/></g>
<g><path style="opacity:1" fill="#92a4b1" d="M 1037.5,1246.5 C 1041.41,1247.1 1045.08,1248.43 1048.5,1250.5C 1048.5,1251.5 1048.5,1252.5 1048.5,1253.5C 1050.18,1253.29 1051.18,1253.95 1051.5,1255.5C 1045.67,1252.39 1039.67,1249.55 1033.5,1247C 1027.59,1245.99 1021.92,1246.49 1016.5,1248.5C 1016.95,1247.54 1017.62,1246.71 1018.5,1246C 1024.88,1245.25 1031.22,1245.42 1037.5,1246.5 Z"/></g>
<g><path style="opacity:1" fill="#637079" d="M 1037.5,1246.5 C 1031.22,1245.42 1024.88,1245.25 1018.5,1246C 1017.62,1246.71 1016.95,1247.54 1016.5,1248.5C 1013.22,1248.21 1010.22,1248.88 1007.5,1250.5C 1009.89,1248.38 1012.56,1246.55 1015.5,1245C 1022.5,1244.33 1029.5,1244.33 1036.5,1245C 1037.06,1245.38 1037.39,1245.88 1037.5,1246.5 Z"/></g>
<g><path style="opacity:1" fill="#6b7a84" d="M 1007.5,1250.5 C 1002.83,1254.5 998.5,1258.83 994.5,1263.5C 994.238,1262.02 994.571,1260.69 995.5,1259.5C 997.518,1257.65 999.351,1255.65 1001,1253.5C 1003.25,1252.59 1005.42,1251.59 1007.5,1250.5 Z"/></g>
<g><path style="opacity:1" fill="#4a606a" d="M 527.5,1267.5 C 511.865,1264.89 496.199,1264.89 480.5,1267.5C 482.663,1266.53 484.996,1265.7 487.5,1265C 499.833,1264.33 512.167,1264.33 524.5,1265C 525.571,1265.85 526.571,1266.69 527.5,1267.5 Z"/></g>
<g><path style="opacity:1" fill="#20292d" d="M 1080.5,1245.5 C 1082.8,1248.66 1084.97,1251.99 1087,1255.5C 1087.83,1260.24 1089.33,1264.57 1091.5,1268.5C 1089.98,1268.49 1088.82,1267.82 1088,1266.5C 1087.67,1264.17 1087.33,1261.83 1087,1259.5C 1085.01,1254.7 1082.84,1250.03 1080.5,1245.5 Z"/></g>
<g><path style="opacity:1" fill="#5a676f" d="M 994.5,1263.5 C 993.492,1265.54 992.492,1267.54 991.5,1269.5C 991.025,1266.69 992.025,1264.69 994.5,1263.5 Z"/></g>
<g><path style="opacity:1" fill="#526b76" d="M 480.5,1267.5 C 473.683,1270.09 467.017,1273.09 460.5,1276.5C 462.798,1274.5 465.131,1272.5 467.5,1270.5C 471.944,1269.59 476.277,1268.59 480.5,1267.5 Z"/></g>
<g><path style="opacity:1" fill="#40535c" d="M 529.5,1267.5 C 542.684,1270.61 554.684,1276.11 565.5,1284C 566.252,1284.67 566.586,1285.5 566.5,1286.5C 560.315,1282.5 553.982,1278.66 547.5,1275C 541.296,1272.72 535.296,1270.22 529.5,1267.5 Z"/></g>
<g><path style="opacity:1" fill="#aec0d0" d="M 1057.5,1263.5 C 1057.83,1263.5 1058.17,1263.5 1058.5,1263.5C 1060.08,1265.14 1060.75,1267.14 1060.5,1269.5C 1061.82,1309.52 1062.49,1349.69 1062.5,1390C 1062.33,1429.5 1062.17,1469 1062,1508.5C 1061.03,1511.58 1060.19,1514.58 1059.5,1517.5C 1059.57,1511.39 1060.24,1505.39 1061.5,1499.5C 1061.5,1424.83 1061.5,1350.17 1061.5,1275.5C 1060.08,1271.51 1058.74,1267.51 1057.5,1263.5 Z"/></g>
<g><path style="opacity:1" fill="#4b616b" d="M 457.5,1277.5 C 454.526,1280.14 451.526,1282.8 448.5,1285.5C 450.233,1281.44 453.233,1278.77 457.5,1277.5 Z"/></g>
<g><path style="opacity:1" fill="#465056" d="M 991.5,1269.5 C 991.5,1270.17 991.5,1270.83 991.5,1271.5C 989.839,1285.97 988.839,1300.64 988.5,1315.5C 988.167,1300.49 988.501,1285.49 989.5,1270.5C 990.183,1270.14 990.85,1269.8 991.5,1269.5 Z"/></g>
<g><path style="opacity:1" fill="#e7f8fb" d="M 1061.5,1275.5 C 1061.5,1350.17 1061.5,1424.83 1061.5,1499.5C 1060.88,1499.61 1060.38,1499.94 1060,1500.5C 1059.33,1425.17 1059.33,1349.83 1060,1274.5C 1060.38,1275.06 1060.88,1275.39 1061.5,1275.5 Z"/></g>
<g><path style="opacity:1" fill="#5e6a73" d="M 1060.5,1269.5 C 1061.5,1269.41 1062.33,1269.75 1063,1270.5C 1063.5,1349.83 1063.67,1429.17 1063.5,1508.5C 1061.09,1523.3 1058.09,1537.97 1054.5,1552.5C 1053.3,1555.6 1051.8,1558.6 1050,1561.5C 1050.05,1564.63 1049.05,1567.3 1047,1569.5C 1046.67,1571.5 1046.33,1573.5 1046,1575.5C 1042.27,1580.74 1039.27,1586.41 1037,1592.5C 1036.29,1593.38 1035.46,1594.05 1034.5,1594.5C 1036.05,1592.12 1036.71,1589.45 1036.5,1586.5C 1037.5,1586.5 1038.5,1586.5 1039.5,1586.5C 1041.13,1579.46 1043.79,1572.79 1047.5,1566.5C 1050.09,1561.15 1052.25,1555.48 1054,1549.5C 1054.5,1546.49 1055,1543.49 1055.5,1540.5C 1057.58,1533.12 1058.92,1525.45 1059.5,1517.5C 1060.19,1514.58 1061.03,1511.58 1062,1508.5C 1062.17,1469 1062.33,1429.5 1062.5,1390C 1062.49,1349.69 1061.82,1309.52 1060.5,1269.5 Z"/></g>
<g><path style="opacity:1" fill="#94a7b5" d="M 991.5,1271.5 C 990.698,1286.79 990.198,1302.12 990,1317.5C 988.574,1319.77 986.74,1321.43 984.5,1322.5C 986.098,1320.3 987.431,1317.97 988.5,1315.5C 988.839,1300.64 989.839,1285.97 991.5,1271.5 Z"/></g>
<g><path style="opacity:1" fill="#1e2326" d="M 1058.5,1263.5 C 1059.5,1263.41 1060.33,1263.75 1061,1264.5C 1061.25,1266.66 1062.25,1268.33 1064,1269.5C 1064.83,1349.33 1064.67,1429 1063.5,1508.5C 1063.67,1429.17 1063.5,1349.83 1063,1270.5C 1062.33,1269.75 1061.5,1269.41 1060.5,1269.5C 1060.75,1267.14 1060.08,1265.14 1058.5,1263.5 Z"/></g>
<g><path style="opacity:1" fill="#3b4c54" d="M 448.5,1285.5 C 446.146,1289.66 443.812,1293.66 441.5,1297.5C 441.343,1296.13 441.51,1294.79 442,1293.5C 443.766,1291.4 445.099,1289.07 446,1286.5C 446.671,1285.75 447.504,1285.41 448.5,1285.5 Z"/></g>
<g><path style="opacity:1" fill="#4c565d" d="M 516.5,1293.5 C 507.361,1292.99 498.361,1293.66 489.5,1295.5C 490.058,1294.21 491.058,1293.38 492.5,1293C 500.677,1292.18 508.677,1292.34 516.5,1293.5 Z"/></g>
<g><path style="opacity:1" fill="#798994" d="M 516.5,1293.5 C 522.701,1294.35 528.368,1296.35 533.5,1299.5C 526.915,1297.7 520.249,1296.2 513.5,1295C 510.5,1294.83 507.5,1294.67 504.5,1294.5C 496.05,1295.43 487.717,1296.76 479.5,1298.5C 482.192,1295.86 485.525,1294.86 489.5,1295.5C 498.361,1293.66 507.361,1292.99 516.5,1293.5 Z"/></g>
<g><path style="opacity:1" fill="#616f77" d="M 479.5,1298.5 C 479.047,1299.46 478.381,1300.29 477.5,1301C 475.189,1301.24 473.189,1302.07 471.5,1303.5C 471.414,1302.5 471.748,1301.67 472.5,1301C 474.652,1299.59 476.986,1298.75 479.5,1298.5 Z"/></g>
<g><path style="opacity:1" fill="#515c64" d="M 533.5,1299.5 C 537.114,1301.09 540.78,1302.59 544.5,1304C 545.71,1305.04 546.71,1306.21 547.5,1307.5C 545.5,1306.5 543.5,1305.5 541.5,1304.5C 538.329,1303.56 535.662,1301.9 533.5,1299.5 Z"/></g>
<g><path style="opacity:1" fill="#59636d" d="M 471.5,1303.5 C 469.732,1306.16 469.065,1309.16 469.5,1312.5C 468.366,1310.03 468.199,1307.37 469,1304.5C 469.671,1303.75 470.504,1303.41 471.5,1303.5 Z"/></g>
<g><path style="opacity:1" fill="#8b9daa" d="M 541.5,1304.5 C 543.5,1305.5 545.5,1306.5 547.5,1307.5C 548.833,1308.17 549.833,1309.17 550.5,1310.5C 546.592,1309.72 543.592,1307.72 541.5,1304.5 Z"/></g>
<g><path style="opacity:1" fill="#4e5962" d="M 469.5,1312.5 C 471.727,1313.4 472.727,1315.07 472.5,1317.5C 473.6,1318.6 474.267,1319.94 474.5,1321.5C 473.542,1321.05 472.708,1320.38 472,1319.5C 470.882,1317.23 470.049,1314.9 469.5,1312.5 Z"/></g>
<g><path style="opacity:1" fill="#788792" d="M 760.5,1313.5 C 763.408,1315.36 766.574,1316.69 770,1317.5C 772.958,1316.14 776.124,1315.47 779.5,1315.5C 777.042,1318.31 773.875,1319.64 770,1319.5C 766.546,1319.12 763.379,1318.12 760.5,1316.5C 760.5,1315.5 760.5,1314.5 760.5,1313.5 Z"/></g>
<g><path style="opacity:1" fill="#92a3b1" d="M 884.5,1312.5 C 883.699,1314.04 883.366,1315.71 883.5,1317.5C 879.932,1317.92 876.432,1318.58 873,1319.5C 871.293,1319.49 869.793,1319.16 868.5,1318.5C 870.857,1318.66 873.19,1318.5 875.5,1318C 876.942,1317.62 877.942,1316.79 878.5,1315.5C 880.672,1314.79 882.672,1313.79 884.5,1312.5 Z"/></g>
<g><path style="opacity:1" fill="#6e7d88" d="M 556.5,1316.5 C 559.241,1318.98 561.241,1321.98 562.5,1325.5C 560.612,1324.06 558.945,1322.39 557.5,1320.5C 556.571,1319.31 556.238,1317.98 556.5,1316.5 Z"/></g>
<g><path style="opacity:1" fill="#3a4249" d="M 964.5,1320.5 C 966.196,1320.69 967.529,1321.52 968.5,1323C 973.155,1323.5 977.821,1323.67 982.5,1323.5C 982.5,1323.83 982.5,1324.17 982.5,1324.5C 977.833,1324.5 973.167,1324.5 968.5,1324.5C 966.833,1323.5 965.5,1322.17 964.5,1320.5 Z"/></g>
<g><path style="opacity:1" fill="#80929e" d="M 968.5,1324.5 C 973.167,1324.5 977.833,1324.5 982.5,1324.5C 977.802,1326.95 973.135,1326.95 968.5,1324.5 Z"/></g>
<g><path style="opacity:1" fill="#acc0cc" d="M 472.5,1317.5 C 473.496,1317.41 474.329,1317.75 475,1318.5C 476.368,1321.19 477.701,1323.85 479,1326.5C 482.358,1329.02 484.191,1332.35 484.5,1336.5C 485.5,1336.5 486.5,1336.5 487.5,1336.5C 487.5,1337.5 487.5,1338.5 487.5,1339.5C 485.938,1339.27 484.605,1338.6 483.5,1337.5C 480.5,1332.17 477.5,1326.83 474.5,1321.5C 474.267,1319.94 473.6,1318.6 472.5,1317.5 Z"/></g>
<g><path style="opacity:1" fill="#515c64" d="M 562.5,1325.5 C 565.836,1326.52 567.336,1328.86 567,1332.5C 569.142,1334.43 570.642,1336.77 571.5,1339.5C 567.025,1335.91 564.025,1331.24 562.5,1325.5 Z"/></g>
<g><path style="opacity:1" fill="#2a373c" d="M 592.5,1319.5 C 596.303,1325.97 599.97,1332.64 603.5,1339.5C 598.2,1333.83 594.534,1327.17 592.5,1319.5 Z"/></g>
<g><path style="opacity:1" fill="#56707b" d="M 448.5,1333.5 C 453.509,1342.19 458.509,1350.86 463.5,1359.5C 461.406,1357.44 459.572,1355.11 458,1352.5C 457.517,1351.55 457.351,1350.55 457.5,1349.5C 456.5,1349.5 455.5,1349.5 454.5,1349.5C 454.5,1347.83 454.5,1346.17 454.5,1344.5C 453.178,1344.67 452.011,1344.34 451,1343.5C 450.467,1340.07 449.633,1336.74 448.5,1333.5 Z"/></g>
<g><path style="opacity:1" fill="#73828d" d="M 483.5,1337.5 C 484.605,1338.6 485.938,1339.27 487.5,1339.5C 487.704,1341.69 488.37,1343.69 489.5,1345.5C 488.292,1344.77 486.959,1344.43 485.5,1344.5C 485.6,1341.89 484.933,1339.56 483.5,1337.5 Z"/></g>
<g><path style="opacity:1" fill="#455a63" d="M 611.5,1352.5 C 612.496,1352.41 613.329,1352.75 614,1353.5C 615.585,1357.54 617.085,1361.54 618.5,1365.5C 617.542,1365.05 616.708,1364.38 616,1363.5C 614.463,1359.77 612.963,1356.1 611.5,1352.5 Z"/></g>
<g><path style="opacity:1" fill="#626f78" d="M 572.5,1342.5 C 573.906,1344.47 575.406,1346.47 577,1348.5C 577.49,1349.79 577.657,1351.13 577.5,1352.5C 578.5,1352.5 579.5,1352.5 580.5,1352.5C 582.132,1357.87 584.632,1362.87 588,1367.5C 588.333,1368.83 588.667,1370.17 589,1371.5C 593.054,1375.59 595.887,1380.26 597.5,1385.5C 594.989,1382.6 592.655,1379.6 590.5,1376.5C 586.839,1368.36 582.339,1360.7 577,1353.5C 575.282,1349.94 573.782,1346.27 572.5,1342.5 Z"/></g>
<g><path style="opacity:1" fill="#43575f" d="M 466.5,1365.5 C 467.458,1365.95 468.292,1366.62 469,1367.5C 470.727,1370.39 472.227,1373.39 473.5,1376.5C 470.029,1373.67 467.696,1370 466.5,1365.5 Z"/></g>
<g><path style="opacity:1" fill="#536c77" d="M 621.5,1370.5 C 622.885,1371.61 624.385,1372.61 626,1373.5C 628.016,1378.87 630.516,1383.87 633.5,1388.5C 627.873,1383.69 623.873,1377.69 621.5,1370.5 Z"/></g>
<g><path style="opacity:1" fill="#64717a" d="M 489.5,1345.5 C 491.244,1347.86 493.077,1350.2 495,1352.5C 497.451,1357.28 499.451,1362.28 501,1367.5C 505.03,1372.9 508.53,1378.57 511.5,1384.5C 510.504,1384.59 509.671,1384.25 509,1383.5C 506.772,1378.05 503.772,1373.05 500,1368.5C 499,1365.5 498,1362.5 497,1359.5C 492.708,1355.79 490.208,1351.12 489.5,1345.5 Z"/></g>
<g><path style="opacity:1" fill="#9aadba" d="M 590.5,1376.5 C 592.655,1379.6 594.989,1382.6 597.5,1385.5C 598.833,1388.17 600.167,1390.83 601.5,1393.5C 600.504,1393.59 599.671,1393.25 599,1392.5C 596.402,1387.06 593.569,1381.73 590.5,1376.5 Z"/></g>
<g><path style="opacity:1" fill="#455a63" d="M 634.5,1391.5 C 639.152,1392.76 643.819,1392.76 648.5,1391.5C 646.821,1393.81 644.488,1394.81 641.5,1394.5C 638.499,1394.83 636.166,1393.83 634.5,1391.5 Z"/></g>
<g><path style="opacity:1" fill="#4b626c" d="M 473.5,1376.5 C 478.812,1384.65 483.979,1392.98 489,1401.5C 489.49,1402.79 489.657,1404.13 489.5,1405.5C 488.518,1404.86 487.518,1404.19 486.5,1403.5C 482.611,1394.25 478.278,1385.25 473.5,1376.5 Z"/></g>
<g><path style="opacity:1" fill="#8b9ca7" d="M 601.5,1393.5 C 603.387,1396.58 605.554,1399.58 608,1402.5C 608.483,1403.45 608.649,1404.45 608.5,1405.5C 606.235,1403.44 604.235,1401.11 602.5,1398.5C 601.548,1396.95 601.215,1395.29 601.5,1393.5 Z"/></g>
<g><path style="opacity:1" fill="#80909c" d="M 520.5,1399.5 C 521.15,1399.8 521.817,1400.14 522.5,1400.5C 523.451,1404.07 524.785,1407.41 526.5,1410.5C 523.475,1407.44 521.475,1403.78 520.5,1399.5 Z"/></g>
<g><path style="opacity:1" fill="#6d7a85" d="M 610.5,1407.5 C 612.5,1408.83 614.167,1410.5 615.5,1412.5C 612.833,1411.83 611.167,1410.17 610.5,1407.5 Z"/></g>
<g><path style="opacity:1" fill="#71808a" d="M 675.5,1405.5 C 673.5,1409.5 670.5,1412.5 666.5,1414.5C 666.369,1413.76 666.536,1413.09 667,1412.5C 670.067,1410.25 672.9,1407.92 675.5,1405.5 Z"/></g>
<g><path style="opacity:1" fill="#435760" d="M 491.5,1407.5 C 494.241,1410.69 496.241,1414.35 497.5,1418.5C 495.406,1416.44 493.572,1414.11 492,1411.5C 491.51,1410.21 491.343,1408.87 491.5,1407.5 Z"/></g>
<g><path style="opacity:1" fill="#454f55" d="M 666.5,1414.5 C 666.167,1415.17 665.833,1415.83 665.5,1416.5C 662.554,1416.9 659.887,1417.9 657.5,1419.5C 657.414,1418.5 657.748,1417.67 658.5,1417C 661.279,1416.44 663.946,1415.61 666.5,1414.5 Z"/></g>
<g><path style="opacity:1" fill="#67757e" d="M 615.5,1412.5 C 619.022,1414.42 622.355,1416.59 625.5,1419C 629.098,1419.15 632.431,1420.15 635.5,1422C 639.833,1422.67 644.167,1422.67 648.5,1422C 651.002,1419.79 654.002,1418.95 657.5,1419.5C 655.708,1420.31 653.708,1420.81 651.5,1421C 650.619,1421.71 649.953,1422.54 649.5,1423.5C 641.349,1423.99 633.349,1423.16 625.5,1421C 622.08,1419.17 618.747,1417.33 615.5,1415.5C 615.5,1414.5 615.5,1413.5 615.5,1412.5 Z"/></g>
<g><path style="opacity:1" fill="#92a4b1" d="M 665.5,1416.5 C 663.534,1417.83 661.534,1419.17 659.5,1420.5C 655.977,1421.13 652.644,1422.13 649.5,1423.5C 649.953,1422.54 650.619,1421.71 651.5,1421C 653.708,1420.81 655.708,1420.31 657.5,1419.5C 659.887,1417.9 662.554,1416.9 665.5,1416.5 Z"/></g>
<g><path style="opacity:1" fill="#485e67" d="M 497.5,1418.5 C 501.569,1423.67 504.902,1429.34 507.5,1435.5C 504.514,1432.66 502.014,1429.33 500,1425.5C 498.587,1423.35 497.754,1421.01 497.5,1418.5 Z"/></g>
<g><path style="opacity:1" fill="#3e464d" d="M 531.5,1418.5 C 533.686,1422.38 535.686,1426.38 537.5,1430.5C 536.533,1429.19 535.199,1428.53 533.5,1428.5C 533.309,1425.02 532.643,1421.68 531.5,1418.5 Z"/></g>
<g><path style="opacity:1" fill="#8596a2" d="M 537.5,1430.5 C 538.496,1430.41 539.329,1430.75 540,1431.5C 541.953,1434.26 543.12,1437.26 543.5,1440.5C 540.63,1437.72 538.63,1434.38 537.5,1430.5 Z"/></g>
<g><path style="opacity:1" fill="#3b4d54" d="M 507.5,1435.5 C 508.906,1437.47 510.406,1439.47 512,1441.5C 512.483,1442.45 512.649,1443.45 512.5,1444.5C 509.607,1442.25 507.94,1439.25 507.5,1435.5 Z"/></g>
<g><path style="opacity:1" fill="#8c9daa" d="M 543.5,1440.5 C 544.5,1440.5 545.5,1440.5 546.5,1440.5C 548.311,1444.72 549.978,1449.05 551.5,1453.5C 550.542,1453.05 549.708,1452.38 549,1451.5C 547.385,1447.72 545.552,1444.05 543.5,1440.5 Z"/></g>
<g><path style="opacity:1" fill="#3f525a" d="M 517.5,1453.5 C 519.594,1455.56 521.428,1457.89 523,1460.5C 523.49,1461.79 523.657,1463.13 523.5,1464.5C 520.759,1461.31 518.759,1457.65 517.5,1453.5 Z"/></g>
<g><path style="opacity:1" fill="#798994" d="M 551.5,1453.5 C 555.244,1459.24 559.077,1464.91 563,1470.5C 564.46,1473.75 565.626,1477.08 566.5,1480.5C 563.901,1475.52 560.734,1470.85 557,1466.5C 554.685,1462.39 552.851,1458.06 551.5,1453.5 Z"/></g>
<g><path style="opacity:1" fill="#445962" d="M 528.5,1472.5 C 529.794,1473.29 530.961,1474.29 532,1475.5C 534.943,1481.94 538.11,1488.28 541.5,1494.5C 539.014,1491.29 536.514,1487.95 534,1484.5C 532.462,1480.31 530.628,1476.31 528.5,1472.5 Z"/></g>
<g><path style="opacity:1" fill="#2b373c" d="M 541.5,1494.5 C 543.384,1497.9 545.884,1500.9 549,1503.5C 550.14,1506.1 550.973,1508.77 551.5,1511.5C 547.055,1506.51 543.722,1500.85 541.5,1494.5 Z"/></g>
<g><path style="opacity:1" fill="#798893" d="M 568.5,1484.5 C 572.328,1486.18 574.495,1489.18 575,1493.5C 576.493,1495.66 578.16,1497.66 580,1499.5C 581.968,1504.77 584.468,1509.77 587.5,1514.5C 588.452,1516.05 588.785,1517.71 588.5,1519.5C 581.471,1508.13 574.805,1496.46 568.5,1484.5 Z"/></g>
<g><path style="opacity:1" fill="#97a9b6" d="M 588.5,1519.5 C 589.822,1519.33 590.989,1519.66 592,1520.5C 596.015,1529.13 600.515,1537.46 605.5,1545.5C 603.806,1544.47 602.473,1543.14 601.5,1541.5C 597.08,1534.11 592.747,1526.78 588.5,1519.5 Z"/></g>
<g><path style="opacity:1" fill="#516a74" d="M 556.5,1520.5 C 559.89,1525.23 562.89,1530.23 565.5,1535.5C 559.725,1532.19 556.725,1527.19 556.5,1520.5 Z"/></g>
<g><path style="opacity:1" fill="#495e68" d="M 565.5,1536.5 C 569.94,1541.45 573.273,1547.12 575.5,1553.5C 573.646,1550.13 571.146,1547.13 568,1544.5C 567.725,1541.59 566.891,1538.92 565.5,1536.5 Z"/></g>
<g><path style="opacity:1" fill="#556f7a" d="M 1091.5,1516.5 C 1089.34,1527.76 1087.51,1539.1 1086,1550.5C 1084.45,1551.59 1083.28,1552.92 1082.5,1554.5C 1084.67,1542.84 1086.83,1531.17 1089,1519.5C 1089.24,1517.88 1090.07,1516.88 1091.5,1516.5 Z"/></g>
<g><path style="opacity:1" fill="#a0b2c1" d="M 1055.5,1540.5 C 1055,1543.49 1054.5,1546.49 1054,1549.5C 1052.25,1555.48 1050.09,1561.15 1047.5,1566.5C 1046.92,1563.02 1047.75,1560.02 1050,1557.5C 1051.87,1551.78 1053.71,1546.11 1055.5,1540.5 Z"/></g>
<g><path style="opacity:1" fill="#798994" d="M 601.5,1541.5 C 602.473,1543.14 603.806,1544.47 605.5,1545.5C 607.064,1548.37 608.897,1551.04 611,1553.5C 612.333,1556.83 613.667,1560.17 615,1563.5C 616,1565.83 617.667,1567.5 620,1568.5C 621.131,1571.45 621.964,1574.45 622.5,1577.5C 620.624,1574.76 618.457,1572.09 616,1569.5C 614.937,1564.7 612.771,1560.53 609.5,1557C 606.164,1552.14 603.497,1546.97 601.5,1541.5 Z"/></g>
<g><path style="opacity:1" fill="#4c626c" d="M 1082.5,1554.5 C 1081.97,1561.16 1079.97,1567.16 1076.5,1572.5C 1078.29,1566.39 1080.29,1560.39 1082.5,1554.5 Z"/></g>
<g><path style="opacity:1" fill="#435760" d="M 582.5,1566.5 C 583.458,1566.95 584.292,1567.62 585,1568.5C 586.727,1571.39 588.227,1574.39 589.5,1577.5C 586.029,1574.67 583.696,1571 582.5,1566.5 Z"/></g>
<g><path style="opacity:1" fill="#4f6671" d="M 589.5,1577.5 C 595.012,1587.86 601.179,1597.86 608,1607.5C 608.49,1608.79 608.657,1610.13 608.5,1611.5C 602.158,1602.32 595.991,1592.98 590,1583.5C 589.505,1581.53 589.338,1579.53 589.5,1577.5 Z"/></g>
<g><path style="opacity:1" fill="#63717a" d="M 1034.5,1594.5 C 1033.45,1599 1031.45,1603 1028.5,1606.5C 1029.94,1602.17 1031.94,1598.17 1034.5,1594.5 Z"/></g>
<g><path style="opacity:1" fill="#94a5b2" d="M 630.5,1591.5 C 633.85,1595.02 637.017,1598.68 640,1602.5C 640.384,1605.06 641.217,1607.39 642.5,1609.5C 640.806,1608.47 639.473,1607.14 638.5,1605.5C 637.828,1604.73 636.995,1604.07 636,1603.5C 633.95,1599.61 632.117,1595.61 630.5,1591.5 Z"/></g>
<g><path style="opacity:1" fill="#32393e" d="M 638.5,1605.5 C 639.473,1607.14 640.806,1608.47 642.5,1609.5C 643.167,1611.17 643.833,1612.83 644.5,1614.5C 640.973,1612.54 638.973,1609.54 638.5,1605.5 Z"/></g>
<g><path style="opacity:1" fill="#697780" d="M 1028.5,1606.5 C 1025.01,1612.14 1021.51,1617.81 1018,1623.5C 1016.96,1624.71 1015.79,1625.71 1014.5,1626.5C 1017.87,1621.41 1020.87,1616.07 1023.5,1610.5C 1024.77,1608.6 1026.43,1607.26 1028.5,1606.5 Z"/></g>
<g><path style="opacity:1" fill="#545f68" d="M 647.5,1618.5 C 649.738,1619.85 651.071,1621.85 651.5,1624.5C 649.631,1622.97 648.298,1620.97 647.5,1618.5 Z"/></g>
<g><path style="opacity:1" fill="#465b64" d="M 613.5,1619.5 C 616.853,1623.53 619.853,1627.86 622.5,1632.5C 618.349,1629.01 615.349,1624.67 613.5,1619.5 Z"/></g>
<g><path style="opacity:1" fill="#5c6a73" d="M 658.5,1632.5 C 660.587,1633.58 661.92,1635.25 662.5,1637.5C 660.413,1636.42 659.08,1634.75 658.5,1632.5 Z"/></g>
<g><path style="opacity:1" fill="#373f46" d="M 1012.5,1629.5 C 1010.61,1632.9 1008.11,1635.9 1005,1638.5C 1004.52,1639.45 1004.35,1640.45 1004.5,1641.5C 1003.5,1641.5 1002.5,1641.5 1001.5,1641.5C 1004.46,1636.87 1008.12,1632.87 1012.5,1629.5 Z"/></g>
<g><path style="opacity:1" fill="#8c9daa" d="M 1014.5,1626.5 C 1013.83,1627.5 1013.17,1628.5 1012.5,1629.5C 1008.12,1632.87 1004.46,1636.87 1001.5,1641.5C 1000.83,1641.83 1000.17,1642.17 999.5,1642.5C 1003.12,1635.88 1008.12,1630.55 1014.5,1626.5 Z"/></g>
<g><path style="opacity:1" fill="#7c8c98" d="M 667.5,1642.5 C 670.5,1643.5 672.5,1645.5 673.5,1648.5C 671.167,1646.83 669.167,1644.83 667.5,1642.5 Z"/></g>
<g><path style="opacity:1" fill="#40535c" d="M 1076.5,1573.5 C 1075.98,1576.89 1075.14,1580.22 1074,1583.5C 1068.03,1595.11 1061.7,1606.44 1055,1617.5C 1053.25,1620.21 1052.25,1623.21 1052,1626.5C 1050.74,1628.75 1048.91,1630.08 1046.5,1630.5C 1046.5,1634.35 1044.66,1637.02 1041,1638.5C 1031.76,1653.24 1020.26,1665.9 1006.5,1676.5C 1021.72,1661.43 1035.55,1645.09 1048,1627.5C 1057.36,1613.44 1065.03,1598.44 1071,1582.5C 1072.86,1579.44 1074.69,1576.44 1076.5,1573.5 Z"/></g>
<g><path style="opacity:1" fill="#91a3b0" d="M 990.5,1651.5 C 990.167,1652.17 989.833,1652.83 989.5,1653.5C 986.149,1655.86 982.815,1658.19 979.5,1660.5C 982.305,1656.35 985.971,1653.35 990.5,1651.5 Z"/></g>
<g><path style="opacity:1" fill="#465057" d="M 989.5,1653.5 C 986.334,1658.33 982,1661.66 976.5,1663.5C 977.167,1662.17 978.167,1661.17 979.5,1660.5C 982.815,1658.19 986.149,1655.86 989.5,1653.5 Z"/></g>
<g><path style="opacity:1" fill="#535f67" d="M 676.5,1651.5 C 681.801,1655.47 686.801,1659.8 691.5,1664.5C 685.609,1661.28 680.609,1656.95 676.5,1651.5 Z"/></g>
<g><path style="opacity:1" fill="#82929f" d="M 976.5,1663.5 C 975.718,1665.45 974.384,1666.95 972.5,1668C 969.691,1669.32 967.025,1670.82 964.5,1672.5C 967.646,1668.35 971.646,1665.35 976.5,1663.5 Z"/></g>
<g><path style="opacity:1" fill="#3c4e56" d="M 649.5,1664.5 C 653.5,1667.83 657.167,1671.5 660.5,1675.5C 655.728,1672.97 652.062,1669.31 649.5,1664.5 Z"/></g>
<g><path style="opacity:1" fill="#37474e" d="M 1006.5,1676.5 C 1001.12,1681.54 995.458,1686.21 989.5,1690.5C 994.219,1684.79 999.885,1680.12 1006.5,1676.5 Z"/></g>
<g><path style="opacity:1" fill="#6e7d87" d="M 964.5,1673.5 C 963.064,1675.08 961.398,1676.58 959.5,1678C 954.863,1680.65 950.197,1683.32 945.5,1686C 943.866,1686.49 942.199,1686.66 940.5,1686.5C 940.5,1687.5 940.5,1688.5 940.5,1689.5C 938.379,1689.33 936.379,1689.66 934.5,1690.5C 935.936,1688.92 937.602,1687.42 939.5,1686C 947.454,1681.4 955.787,1677.23 964.5,1673.5 Z"/></g>
<g><path style="opacity:1" fill="#81929d" d="M 693.5,1665.5 C 699.502,1668.33 704.836,1672.16 709.5,1677C 715.875,1680.07 722.208,1683.07 728.5,1686C 729.381,1686.71 730.047,1687.54 730.5,1688.5C 728.833,1687.83 727.167,1687.17 725.5,1686.5C 720.203,1683.22 714.537,1680.38 708.5,1678C 703.579,1673.57 698.579,1669.4 693.5,1665.5 Z"/></g>
<g><path style="opacity:1" fill="#3b4d54" d="M 989.5,1690.5 C 984.146,1695.41 978.146,1699.41 971.5,1702.5C 977.03,1697.96 983.03,1693.96 989.5,1690.5 Z"/></g>
<g><path style="opacity:1" fill="#94a7b5" d="M 739.5,1692.5 C 741.482,1693 743.482,1693.5 745.5,1694C 746.955,1695.63 748.622,1696.79 750.5,1697.5C 749.127,1697.66 747.793,1697.49 746.5,1697C 744.16,1695.36 741.827,1693.86 739.5,1692.5 Z"/></g>
<g><path style="opacity:1" fill="#535f67" d="M 725.5,1686.5 C 727.167,1687.17 728.833,1687.83 730.5,1688.5C 733.221,1690.57 736.221,1691.9 739.5,1692.5C 741.827,1693.86 744.16,1695.36 746.5,1697C 747.793,1697.49 749.127,1697.66 750.5,1697.5C 750.5,1697.83 750.5,1698.17 750.5,1698.5C 748.396,1698.8 746.396,1698.47 744.5,1697.5C 739.283,1693.93 733.616,1691.1 727.5,1689C 726.619,1688.29 725.953,1687.46 725.5,1686.5 Z"/></g>
<g><path style="opacity:1" fill="#93a4b2" d="M 934.5,1690.5 C 927.634,1693.12 920.967,1696.29 914.5,1700C 912.527,1700.5 910.527,1700.66 908.5,1700.5C 906.833,1701.17 905.167,1701.83 903.5,1702.5C 903.953,1701.54 904.619,1700.71 905.5,1700C 915.224,1697.1 924.89,1693.93 934.5,1690.5 Z"/></g>
<g><path style="opacity:1" fill="#2d3a40" d="M 688.5,1697.5 C 694.826,1700.26 700.493,1703.93 705.5,1708.5C 700.742,1706.26 696.075,1703.76 691.5,1701C 690.29,1699.96 689.29,1698.79 688.5,1697.5 Z"/></g>
<g><path style="opacity:1" fill="#8899a6" d="M 750.5,1698.5 C 750.5,1698.17 750.5,1697.83 750.5,1697.5C 758.795,1698.84 766.461,1701.5 773.5,1705.5C 770.892,1705.6 768.558,1704.93 766.5,1703.5C 765.5,1703.5 764.5,1703.5 763.5,1703.5C 759.447,1701.31 755.114,1699.64 750.5,1698.5 Z"/></g>
<g><path style="opacity:1" fill="#414b51" d="M 750.5,1698.5 C 755.114,1699.64 759.447,1701.31 763.5,1703.5C 760.017,1702.25 756.351,1701.41 752.5,1701C 751.619,1700.29 750.953,1699.46 750.5,1698.5 Z"/></g>
<g><path style="opacity:1" fill="#6a7782" d="M 908.5,1700.5 C 908.631,1701.38 908.298,1702.04 907.5,1702.5C 904.376,1702.81 901.709,1703.98 899.5,1706C 896.12,1706.34 892.787,1706.84 889.5,1707.5C 889.833,1706.83 890.167,1706.17 890.5,1705.5C 894.892,1704.65 899.225,1703.65 903.5,1702.5C 905.167,1701.83 906.833,1701.17 908.5,1700.5 Z"/></g>
<g><path style="opacity:1" fill="#525d65" d="M 766.5,1703.5 C 768.558,1704.93 770.892,1705.6 773.5,1705.5C 778.167,1706.5 782.833,1707.5 787.5,1708.5C 787.5,1708.83 787.5,1709.17 787.5,1709.5C 781.239,1708.48 774.905,1707.32 768.5,1706C 767.619,1705.29 766.953,1704.46 766.5,1703.5 Z"/></g>
<g><path style="opacity:1" fill="#98aab8" d="M 890.5,1705.5 C 890.167,1706.17 889.833,1706.83 889.5,1707.5C 882.744,1707.99 876.077,1708.99 869.5,1710.5C 870.058,1709.21 871.058,1708.38 872.5,1708C 878.706,1707.9 884.706,1707.07 890.5,1705.5 Z"/></g>
<g><path style="opacity:1" fill="#363e43" d="M 789.5,1709.5 C 794.906,1710.76 800.239,1711.76 805.5,1712.5C 800.489,1712.67 795.489,1712.5 790.5,1712C 789.748,1711.33 789.414,1710.5 789.5,1709.5 Z"/></g>
<g><path style="opacity:1" fill="#324248" d="M 712.5,1711.5 C 718.64,1714.41 724.64,1717.41 730.5,1720.5C 723.505,1719.4 717.505,1716.4 712.5,1711.5 Z"/></g>
<g><path style="opacity:1" fill="#92a5b3" d="M 787.5,1709.5 C 787.5,1709.17 787.5,1708.83 787.5,1708.5C 810.717,1712.06 834.05,1713.06 857.5,1711.5C 855.369,1712.31 853.036,1712.81 850.5,1713C 838.838,1713.5 827.171,1713.67 815.5,1713.5C 812.482,1713.3 809.482,1712.96 806.5,1712.5C 806.167,1712.5 805.833,1712.5 805.5,1712.5C 800.239,1711.76 794.906,1710.76 789.5,1709.5C 788.833,1709.5 788.167,1709.5 787.5,1709.5 Z"/></g>
<g><path style="opacity:1" fill="#5c6871" d="M 889.5,1707.5 C 889.389,1708.12 889.056,1708.62 888.5,1709C 883.534,1708.96 878.868,1709.96 874.5,1712C 869.418,1712.22 864.418,1712.72 859.5,1713.5C 844.682,1714.76 830.016,1714.76 815.5,1713.5C 827.171,1713.67 838.838,1713.5 850.5,1713C 853.036,1712.81 855.369,1712.31 857.5,1711.5C 861.702,1711.82 865.702,1711.48 869.5,1710.5C 876.077,1708.99 882.744,1707.99 889.5,1707.5 Z"/></g>
<g><path style="opacity:1" fill="#2b3135" d="M 806.5,1712.5 C 809.482,1712.96 812.482,1713.3 815.5,1713.5C 830.016,1714.76 844.682,1714.76 859.5,1713.5C 858.391,1714.29 857.058,1714.79 855.5,1715C 840.833,1715.67 826.167,1715.67 811.5,1715C 809.347,1714.9 807.681,1714.07 806.5,1712.5 Z"/></g>
<g><path style="opacity:1" fill="#2e3c42" d="M 955.5,1711.5 C 950.981,1715.01 945.981,1717.67 940.5,1719.5C 940.953,1718.54 941.619,1717.71 942.5,1717C 946.574,1714.69 950.907,1712.86 955.5,1711.5 Z"/></g>
<g><path style="opacity:1" fill="#57717c" d="M 939.5,1719.5 C 938.766,1720.71 938.433,1722.04 938.5,1723.5C 934.864,1724.33 931.197,1724.99 927.5,1725.5C 930.132,1723.67 932.799,1721.83 935.5,1720C 936.793,1719.51 938.127,1719.34 939.5,1719.5 Z"/></g>
<g><path style="opacity:1" fill="#5a7580" d="M 730.5,1720.5 C 739.173,1725.16 748.173,1728.83 757.5,1731.5C 750.46,1730.27 743.46,1728.94 736.5,1727.5C 736.5,1726.17 736.5,1724.83 736.5,1723.5C 733.784,1723.61 731.784,1722.61 730.5,1720.5 Z"/></g>
<g><path style="opacity:1" fill="#35454c" d="M 921.5,1727.5 C 917.105,1729.44 912.438,1730.77 907.5,1731.5C 911.734,1729.04 916.4,1727.71 921.5,1727.5 Z"/></g>
<g><path style="opacity:1" fill="#232d32" d="M 766.5,1733.5 C 774.118,1734.62 781.784,1735.45 789.5,1736C 791.808,1737.87 794.475,1738.87 797.5,1739C 805.146,1739.9 812.812,1740.57 820.5,1741C 818.942,1741.21 817.609,1741.71 816.5,1742.5C 810.132,1742.83 803.798,1742.5 797.5,1741.5C 787.095,1738.82 776.762,1736.16 766.5,1733.5 Z"/></g>
<g><path style="opacity:1" fill="#3a4b53" d="M 906.5,1732.5 C 902.88,1733.84 899.213,1735.34 895.5,1737C 882.765,1738.38 870.099,1740.21 857.5,1742.5C 857.389,1741.88 857.056,1741.38 856.5,1741C 873.185,1738.17 889.852,1735.33 906.5,1732.5 Z"/></g>
</svg>
