<?xml version="1.0" encoding="UTF-8"?>
<!DOCTYPE svg PUBLIC "-//W3C//DTD SVG 1.1//EN" "http://www.w3.org/Graphics/SVG/1.1/DTD/svg11.dtd">
<svg xmlns="http://www.w3.org/2000/svg" version="1.1" width="1598px" height="1584px" style="shape-rendering:geometricPrecision; text-rendering:geometricPrecision; image-rendering:optimizeQuality; fill-rule:evenodd; clip-rule:evenodd" xmlns:xlink="http://www.w3.org/1999/xlink">
<g><path style="opacity:0.929" fill="#000000" d="M 784.5,192.5 C 792.76,192.541 798.593,196.541 802,204.5C 802.667,228.5 802.667,252.5 802,276.5C 799.898,287.491 793.731,292.824 783.5,292.5C 776.669,291.215 772.169,287.215 770,280.5C 769.333,255.167 769.333,229.833 770,204.5C 773.571,198.743 778.405,194.743 784.5,192.5 Z"/></g>
<g><path style="opacity:0.909" fill="#000000" d="M 694.5,281.5 C 696.805,281.519 699.138,281.519 701.5,281.5C 703.167,282.167 704.833,282.833 706.5,283.5C 715.333,292.5 724.167,301.5 733,310.5C 738.604,324.293 734.27,333.293 720,337.5C 716.739,336.87 713.572,335.87 710.5,334.5C 701.5,325.5 692.5,316.5 683.5,307.5C 678.719,294.757 682.386,286.091 694.5,281.5 Z"/></g>
<g><path style="opacity:0.912" fill="#000000" d="M 869.5,282.5 C 887.378,283.265 893.211,292.265 887,309.5C 878.833,317.667 870.667,325.833 862.5,334C 851.865,340.26 843.032,337.76 836,326.5C 835.19,321.743 835.524,317.076 837,312.5C 846.167,303.333 855.333,294.167 864.5,285C 866.491,284.626 868.158,283.793 869.5,282.5 Z"/></g>
<g><path style="opacity:0.988" fill="#010101" d="M 824.5,344.5 C 825.499,412.665 825.833,480.998 825.5,549.5C 872.501,549.333 919.501,549.5 966.5,550C 1029.35,559.328 1071.52,593.828 1093,653.5C 1095.77,662.667 1097.77,672 1099,681.5C 1099.67,743.5 1099.67,805.5 1099,867.5C 1090.22,924.95 1059.38,965.45 1006.5,989C 993.644,994.214 980.311,997.547 966.5,999C 1016.5,999.333 1066.5,999.667 1116.5,1000C 1176.51,1009.03 1218.01,1041.53 1241,1097.5C 1244.93,1108.54 1247.59,1119.87 1249,1131.5C 1249.33,1091.83 1249.67,1052.17 1250,1012.5C 1256.76,974.984 1277.76,948.984 1313,934.5C 1319.62,931.85 1326.45,930.017 1333.5,929C 1376.17,928.333 1418.83,928.333 1461.5,929C 1498.67,936.241 1524.67,957.241 1539.5,992C 1542.15,998.615 1543.98,1005.45 1545,1012.5C 1545.67,1153.83 1545.67,1295.17 1545,1436.5C 1537.76,1473.67 1516.76,1499.67 1482,1514.5C 1475.38,1517.15 1468.55,1518.98 1461.5,1520C 1418.83,1520.67 1376.17,1520.67 1333.5,1520C 1298.17,1513.33 1272.67,1493.83 1257,1461.5C 1253.58,1453.48 1251.24,1445.14 1250,1436.5C 1249.67,1396.83 1249.33,1357.17 1249,1317.5C 1239.29,1379.87 1204.79,1421.71 1145.5,1443C 1136.02,1445.9 1126.35,1447.9 1116.5,1449C 905.167,1449.67 693.833,1449.67 482.5,1449C 426.826,1440.97 386.659,1411.8 362,1361.5C 355.966,1347.4 351.966,1332.73 350,1317.5C 349.667,1357.17 349.333,1396.83 349,1436.5C 342.244,1474.02 321.244,1500.02 286,1514.5C 279.385,1517.15 272.551,1518.98 265.5,1520C 222.833,1520.67 180.167,1520.67 137.5,1520C 101.023,1512.85 75.1892,1492.35 60,1458.5C 57.1841,1451.39 55.1841,1444.05 54,1436.5C 53.3333,1295.17 53.3333,1153.83 54,1012.5C 61.1498,976.023 81.6498,950.189 115.5,935C 122.614,932.184 129.947,930.184 137.5,929C 180.167,928.333 222.833,928.333 265.5,929C 305.607,936.772 332.44,959.939 346,998.5C 347.317,1003.1 348.317,1007.77 349,1012.5C 349.333,1052.17 349.667,1091.83 350,1131.5C 358.102,1077.09 386.602,1037.59 435.5,1013C 450.482,1006.23 466.149,1001.9 482.5,1000C 532.5,999.667 582.5,999.333 632.5,999C 572.487,989.972 530.987,957.472 508,901.5C 504.075,890.465 501.408,879.132 500,867.5C 499.333,805.5 499.333,743.5 500,681.5C 508.102,627.095 536.602,587.595 585.5,563C 600.482,556.229 616.149,551.895 632.5,550C 673.165,549.5 713.832,549.333 754.5,549.5C 754.611,505.815 755.444,462.148 757,418.5C 779.706,393.963 802.206,369.296 824.5,344.5 Z"/></g>
<g><path style="opacity:0.916" fill="#000000" d="M 603.5,368.5 C 626.96,369.706 650.46,369.706 674,368.5C 689.076,372.045 693.742,381.045 688,395.5C 684.474,399.549 680.474,402.216 676,403.5C 656.273,402.954 635.94,402.954 615,403.5C 611.534,402.798 608.034,402.131 604.5,401.5C 603.914,401.709 603.414,402.043 603,402.5C 601.101,400.433 598.434,398.433 595,396.5C 591.34,390.873 590.673,384.873 593,378.5C 596.396,374.935 599.896,371.602 603.5,368.5 Z"/></g>
<g><path style="opacity:0.915" fill="#000000" d="M 895.5,369.5 C 909.095,370.699 922.929,370.699 937,369.5C 938,370.167 939,370.833 940,371.5C 943.333,370.167 946.667,370.167 950,371.5C 952.47,369.269 954.803,369.269 957,371.5C 959.739,370.878 962.572,370.544 965.5,370.5C 970.732,372.895 974.899,376.562 978,381.5C 980.122,392.931 975.789,400.598 965,404.5C 941.633,403.534 918.133,403.534 894.5,404.5C 880.597,400.027 876.431,391.027 882,377.5C 883.5,376 885,374.5 886.5,373C 889.852,371.574 892.852,370.407 895.5,369.5 Z"/></g>
<g><path style="opacity:1" fill="#d4e8fa" d="M 799.5,409.5 C 800.499,455.997 800.832,502.664 800.5,549.5C 793.5,549.5 786.5,549.5 779.5,549.5C 779.951,509.156 780.784,468.823 782,428.5C 787.841,422.135 793.674,415.801 799.5,409.5 Z"/></g>
<g><path style="opacity:1" fill="#7ba0b0" d="M 871.5,579.5 C 889.329,580.332 907.329,580.832 925.5,581C 986.418,589.935 1028.59,622.769 1052,679.5C 1057.31,694.039 1060.31,709.039 1061,724.5C 1061.67,764.5 1061.67,804.5 1061,844.5C 1051.48,905.419 1017.64,945.919 959.5,966C 954.4,967.324 949.4,968.491 944.5,969.5C 929.056,971.037 913.556,971.704 898,971.5C 855.835,970.674 813.668,970.007 771.5,969.5C 734.335,968.444 697.002,967.611 659.5,967C 607.452,959.077 568.619,932.243 543,886.5C 537.592,875.098 533.092,863.432 529.5,851.5C 528.865,844.819 528.031,838.152 527,831.5C 526.06,788.835 525.726,746.169 526,703.5C 527.719,691.627 530.219,679.961 533.5,668.5C 551.439,627.228 581.439,598.561 623.5,582.5C 640.131,577.697 657.131,575.697 674.5,576.5C 740.168,577.474 805.835,578.474 871.5,579.5 Z"/></g>
<g><path style="opacity:1" fill="#678d98" d="M 871.5,579.5 C 901.835,579.333 932.168,579.5 962.5,580C 1019.22,589.724 1054.39,622.557 1068,678.5C 1069.64,739.806 1069.97,801.139 1069,862.5C 1059.91,917.592 1028.41,952.425 974.5,967C 964.589,968.911 954.589,969.744 944.5,969.5C 949.4,968.491 954.4,967.324 959.5,966C 1017.64,945.919 1051.48,905.419 1061,844.5C 1061.67,804.5 1061.67,764.5 1061,724.5C 1060.31,709.039 1057.31,694.039 1052,679.5C 1028.59,622.769 986.418,589.935 925.5,581C 907.329,580.832 889.329,580.332 871.5,579.5 Z"/></g>
<g><path style="opacity:1" fill="#648994" d="M 623.5,582.5 C 581.439,598.561 551.439,627.228 533.5,668.5C 547.557,623.109 577.557,594.443 623.5,582.5 Z"/></g>
<g><path style="opacity:1" fill="#010102" d="M 772.5,587.5 C 851.78,585.422 911.613,618.089 952,685.5C 981.831,745.113 981.831,804.779 952,864.5C 906.977,938.423 841.144,970.257 754.5,960C 675.383,942.525 625.216,894.692 604,816.5C 590.148,742.72 610.982,680.886 666.5,631C 697.411,605.711 732.744,591.211 772.5,587.5 Z"/></g>
<g><path style="opacity:1" fill="#b0d6fa" d="M 770.5,617.5 C 839.3,614.141 891.133,641.807 926,700.5C 950.459,750.092 950.459,799.759 926,849.5C 891.159,908.345 839.325,935.845 770.5,932C 715.344,924.025 674.177,895.858 647,847.5C 618.922,787.534 624.255,730.868 663,677.5C 691.205,643.814 727.039,623.814 770.5,617.5 Z"/></g>
<g><path style="opacity:1" fill="#020202" d="M 771.5,637.5 C 830.71,634.351 875.877,657.684 907,707.5C 930.106,752.444 930.106,797.444 907,842.5C 875.89,892.475 830.723,915.641 771.5,912C 705.557,900.39 665.39,861.89 651,796.5C 644.549,734.907 667.383,687.74 719.5,655C 735.923,646.026 753.256,640.193 771.5,637.5 Z"/></g>
<g><path style="opacity:1" fill="#fd75a7" d="M 773.5,667.5 C 829.24,664.935 867.74,689.269 889,740.5C 901.961,787.161 890.461,826.661 854.5,859C 816.54,886.466 776.54,889.799 734.5,869C 688.465,839.075 671.631,797.241 684,743.5C 699.379,700.942 729.212,675.608 773.5,667.5 Z"/></g>
<g><path style="opacity:1" fill="#668c98" d="M 529.5,851.5 C 533.092,863.432 537.592,875.098 543,886.5C 568.619,932.243 607.452,959.077 659.5,967C 697.002,967.611 734.335,968.444 771.5,969.5C 726.165,969.667 680.832,969.5 635.5,969C 580.949,959.449 546.449,927.949 532,874.5C 530.317,866.921 529.484,859.255 529.5,851.5 Z"/></g>
<g><path style="opacity:1" fill="#95b9ca" d="M 1464.5,947.5 C 1421.52,946.366 1378.52,946.199 1335.5,947C 1331.45,949.174 1327.12,950.007 1322.5,949.5C 1325.95,948.03 1329.62,946.864 1333.5,946C 1375.83,945.333 1418.17,945.333 1460.5,946C 1462.06,946.21 1463.39,946.71 1464.5,947.5 Z"/></g>
<g><path style="opacity:1" fill="#d7ebfd" d="M 1464.5,947.5 C 1477.25,949.966 1488.59,955.299 1498.5,963.5C 1502.1,968.774 1506.44,973.441 1511.5,977.5C 1519.41,986.322 1524.41,996.655 1526.5,1008.5C 1527.48,1144.16 1527.82,1279.82 1527.5,1415.5C 1527.65,1420.3 1526.98,1424.97 1525.5,1429.5C 1522.38,1437.08 1518.71,1444.41 1514.5,1451.5C 1503.07,1467.93 1487.74,1478.93 1468.5,1484.5C 1465.16,1484.89 1461.83,1485.39 1458.5,1486C 1417.83,1486.67 1377.17,1486.67 1336.5,1486C 1333.17,1485.39 1329.84,1484.89 1326.5,1484.5C 1306.2,1478.69 1290.2,1467.02 1278.5,1449.5C 1274.19,1442.07 1271.36,1434.07 1270,1425.5C 1269.62,1424.94 1269.12,1424.61 1268.5,1424.5C 1268.5,1423.17 1268.5,1421.83 1268.5,1420.5C 1267.51,1284.84 1267.18,1149.18 1267.5,1013.5C 1267.5,1013.17 1267.5,1012.83 1267.5,1012.5C 1268.77,1010.09 1269.43,1007.43 1269.5,1004.5C 1275.84,981.822 1289.51,965.156 1310.5,954.5C 1314.91,954.125 1318.57,952.458 1321.5,949.5C 1321.83,949.5 1322.17,949.5 1322.5,949.5C 1327.12,950.007 1331.45,949.174 1335.5,947C 1378.52,946.199 1421.52,946.366 1464.5,947.5 Z"/></g>
<g><path style="opacity:1" fill="#b0d6fa" d="M 290.5,959.5 C 290.833,959.5 291.167,959.5 291.5,959.5C 291.511,961.017 292.177,962.184 293.5,963C 297.734,966.082 302.067,968.916 306.5,971.5C 310.478,976.994 314.311,982.661 318,988.5C 319.774,991.715 321.274,995.048 322.5,998.5C 322.043,999.298 321.376,999.631 320.5,999.5C 318.674,997.853 317.34,995.853 316.5,993.5C 311.018,984.519 303.685,977.352 294.5,972C 283.457,965.237 271.457,961.237 258.5,960C 220.5,959.333 182.5,959.333 144.5,960C 131.578,961.231 119.578,965.231 108.5,972C 107.177,972.816 106.511,973.983 106.5,975.5C 97.5,981.167 90.1667,988.5 84.5,997.5C 82.9826,997.511 81.8159,998.177 81,999.5C 90.5519,974.629 108.385,958.795 134.5,952C 138.819,951.24 143.152,950.573 147.5,950C 183.167,949.333 218.833,949.333 254.5,950C 267.116,950.945 278.95,954.445 290,960.5C 290.399,960.272 290.565,959.938 290.5,959.5 Z"/></g>
<g><path style="opacity:1" fill="#8baaba" d="M 1321.5,949.5 C 1318.57,952.458 1314.91,954.125 1310.5,954.5C 1313.74,952.049 1317.41,950.382 1321.5,949.5 Z"/></g>
<g><path style="opacity:1" fill="#9ec4e2" d="M 316.5,993.5 C 304.81,979.321 290.143,969.655 272.5,964.5C 267.781,962.705 262.781,961.538 257.5,961C 220.167,960.333 182.833,960.333 145.5,961C 140.219,961.538 135.219,962.705 130.5,964.5C 122.066,967.047 114.066,970.714 106.5,975.5C 106.511,973.983 107.177,972.816 108.5,972C 119.578,965.231 131.578,961.231 144.5,960C 182.5,959.333 220.5,959.333 258.5,960C 271.457,961.237 283.457,965.237 294.5,972C 303.685,977.352 311.018,984.519 316.5,993.5 Z"/></g>
<g><path style="opacity:1" fill="#7499a8" d="M 272.5,964.5 C 269.161,964.11 265.827,963.61 262.5,963C 221.833,962.333 181.167,962.333 140.5,963C 137.173,963.61 133.839,964.11 130.5,964.5C 135.219,962.705 140.219,961.538 145.5,961C 182.833,960.333 220.167,960.333 257.5,961C 262.781,961.538 267.781,962.705 272.5,964.5 Z"/></g>
<g><path style="opacity:1" fill="#d7ebfd" d="M 272.5,964.5 C 290.143,969.655 304.81,979.321 316.5,993.5C 317.34,995.853 318.674,997.853 320.5,999.5C 324.423,1005.6 326.756,1012.27 327.5,1019.5C 329.597,1025.3 330.764,1031.3 331,1037.5C 331.667,1166.17 331.667,1294.83 331,1423.5C 330.484,1431.55 329.651,1439.55 328.5,1447.5C 327.542,1447.95 326.708,1448.62 326,1449.5C 324.072,1455.01 321.906,1460.34 319.5,1465.5C 316.338,1472.34 311.671,1478 305.5,1482.5C 302.477,1483.35 299.977,1485.01 298,1487.5C 297.667,1487.17 297.333,1486.83 297,1486.5C 293.457,1489.69 289.624,1492.53 285.5,1495C 280.181,1496.66 274.847,1498.32 269.5,1500C 268.944,1500.38 268.611,1500.88 268.5,1501.5C 267.833,1501.5 267.167,1501.5 266.5,1501.5C 220.805,1503.12 175.139,1502.79 129.5,1500.5C 129.167,1500.5 128.833,1500.5 128.5,1500.5C 125.985,1497.43 122.651,1496.1 118.5,1496.5C 107.464,1491.8 98.131,1484.8 90.5,1475.5C 88.339,1471.46 85.839,1467.46 83,1463.5C 76.7105,1450.95 73.0438,1437.62 72,1423.5C 71.3333,1296.5 71.3333,1169.5 72,1042.5C 72.0821,1033.66 73.2488,1025 75.5,1016.5C 77.5479,1009.68 80.5479,1003.34 84.5,997.5C 90.1667,988.5 97.5,981.167 106.5,975.5C 114.066,970.714 122.066,967.047 130.5,964.5C 133.839,964.11 137.173,963.61 140.5,963C 181.167,962.333 221.833,962.333 262.5,963C 265.827,963.61 269.161,964.11 272.5,964.5 Z"/></g>
<g><path style="opacity:1" fill="#6c93a0" d="M 291.5,959.5 C 297.087,962.79 302.087,966.79 306.5,971.5C 302.067,968.916 297.734,966.082 293.5,963C 292.177,962.184 291.511,961.017 291.5,959.5 Z"/></g>
<g><path style="opacity:1" fill="#8aacbc" d="M 1498.5,963.5 C 1503.56,967.559 1507.9,972.226 1511.5,977.5C 1506.44,973.441 1502.1,968.774 1498.5,963.5 Z"/></g>
<g><path style="opacity:1" fill="#6b919e" d="M 290.5,959.5 C 290.565,959.938 290.399,960.272 290,960.5C 278.95,954.445 267.116,950.945 254.5,950C 218.833,949.333 183.167,949.333 147.5,950C 143.152,950.573 138.819,951.24 134.5,952C 108.385,958.795 90.5519,974.629 81,999.5C 81.8159,998.177 82.9826,997.511 84.5,997.5C 80.5479,1003.34 77.5479,1009.68 75.5,1016.5C 75.1667,1016.5 74.8333,1016.5 74.5,1016.5C 80.3293,983.828 98.996,961.994 130.5,951C 133.471,950.206 136.471,949.539 139.5,949C 180.5,948.333 221.5,948.333 262.5,949C 272.469,951.042 281.802,954.542 290.5,959.5 Z"/></g>
<g><path style="opacity:1" fill="#698e9a" d="M 306.5,971.5 C 319.788,985.082 327.455,1001.42 329.5,1020.5C 328.833,1020.17 328.167,1019.83 327.5,1019.5C 326.756,1012.27 324.423,1005.6 320.5,999.5C 321.376,999.631 322.043,999.298 322.5,998.5C 321.274,995.048 319.774,991.715 318,988.5C 314.311,982.661 310.478,976.994 306.5,971.5 Z"/></g>
<g><path style="opacity:1" fill="#617e8b" d="M 1269.5,1004.5 C 1269.43,1007.43 1268.77,1010.09 1267.5,1012.5C 1267.29,1009.5 1267.96,1006.84 1269.5,1004.5 Z"/></g>
<g><path style="opacity:1" fill="#7ca0b0" d="M 1115.5,1030.5 C 1163.18,1050.03 1191.02,1085.37 1199,1136.5C 1199.67,1195.17 1199.67,1253.83 1199,1312.5C 1191.01,1363.63 1163.18,1398.97 1115.5,1418.5C 1106.28,1420.78 1096.94,1422.61 1087.5,1424C 959.167,1424.5 830.834,1424.67 702.5,1424.5C 702.5,1424.17 702.5,1423.83 702.5,1423.5C 747.465,1386.54 792.131,1349.2 836.5,1311.5C 805.167,1285.17 773.833,1258.83 742.5,1232.5C 773.808,1206.2 805.142,1179.86 836.5,1153.5C 801.392,1123.44 766.059,1093.61 730.5,1064C 720.939,1056.26 711.272,1048.76 701.5,1041.5C 700.665,1090.43 700.165,1140.1 700,1190.5C 674.833,1165.33 649.667,1140.17 624.5,1115C 623.167,1114.33 621.833,1114.33 620.5,1115C 614.569,1120.42 609.236,1126.26 604.5,1132.5C 603.542,1133.96 602.376,1135.29 601,1136.5C 600.333,1137.17 600.333,1137.83 601,1138.5C 632.297,1169.8 663.463,1200.96 694.5,1232C 664.006,1263.66 633.006,1294.83 601.5,1325.5C 599.656,1326.2 599.156,1327.54 600,1329.5C 606.833,1336.33 613.667,1343.17 620.5,1350C 621.833,1350.67 623.167,1350.67 624.5,1350C 649.667,1324.83 674.833,1299.67 700,1274.5C 700.5,1324.5 700.667,1374.5 700.5,1424.5C 626.473,1424.98 552.473,1424.48 478.5,1423C 426.692,1411.53 393.192,1380.36 378,1329.5C 377.162,1324.13 376.162,1318.79 375,1313.5C 374.333,1254.17 374.333,1194.83 375,1135.5C 383.542,1081.62 413.709,1046.12 465.5,1029C 472.065,1027.15 478.731,1025.82 485.5,1025C 684.833,1024.33 884.167,1024.33 1083.5,1025C 1094.35,1025.87 1105.02,1027.7 1115.5,1030.5 Z"/></g>
<g><path style="opacity:1" fill="#9dc2d4" d="M 1267.5,1013.5 C 1267.18,1149.18 1267.51,1284.84 1268.5,1420.5C 1267.73,1419.74 1267.23,1418.74 1267,1417.5C 1266.17,1282.67 1266.33,1148 1267.5,1013.5 Z"/></g>
<g><path style="opacity:1" fill="#9cc1d3" d="M 1526.5,1008.5 C 1527.29,1009.61 1527.79,1010.94 1528,1012.5C 1528.83,1147 1528.67,1281.33 1527.5,1415.5C 1527.82,1279.82 1527.48,1144.16 1526.5,1008.5 Z"/></g>
<g><path style="opacity:1" fill="#678d99" d="M 1115.5,1030.5 C 1166.98,1039.81 1200.48,1069.47 1216,1119.5C 1217.39,1124.76 1218.39,1130.09 1219,1135.5C 1219.67,1194.5 1219.67,1253.5 1219,1312.5C 1211.86,1360.3 1186.03,1393.47 1141.5,1412C 1132.97,1414.8 1124.3,1416.97 1115.5,1418.5C 1163.18,1398.97 1191.01,1363.63 1199,1312.5C 1199.67,1253.83 1199.67,1195.17 1199,1136.5C 1191.02,1085.37 1163.18,1050.03 1115.5,1030.5 Z"/></g>
<g><path style="opacity:1" fill="#abc9da" d="M 74.5,1016.5 C 74.8333,1016.5 75.1667,1016.5 75.5,1016.5C 73.2488,1025 72.0821,1033.66 72,1042.5C 71.3333,1169.5 71.3333,1296.5 72,1423.5C 73.0438,1437.62 76.7105,1450.95 83,1463.5C 85.839,1467.46 88.339,1471.46 90.5,1475.5C 80.5709,1463.97 74.0709,1450.64 71,1435.5C 70.3333,1300.17 70.3333,1164.83 71,1029.5C 71.8671,1025.07 73.0338,1020.74 74.5,1016.5 Z"/></g>
<g><path style="opacity:1" fill="#accadc" d="M 327.5,1019.5 C 328.167,1019.83 328.833,1020.17 329.5,1020.5C 330.768,1022.91 331.435,1025.57 331.5,1028.5C 332.486,1161.16 332.82,1293.82 332.5,1426.5C 332.247,1433.82 330.914,1440.82 328.5,1447.5C 329.651,1439.55 330.484,1431.55 331,1423.5C 331.667,1294.83 331.667,1166.17 331,1037.5C 330.764,1031.3 329.597,1025.3 327.5,1019.5 Z"/></g>
<g><path style="opacity:1" fill="#020202" d="M 701.5,1041.5 C 711.272,1048.76 720.939,1056.26 730.5,1064C 766.059,1093.61 801.392,1123.44 836.5,1153.5C 805.142,1179.86 773.808,1206.2 742.5,1232.5C 773.833,1258.83 805.167,1285.17 836.5,1311.5C 792.131,1349.2 747.465,1386.54 702.5,1423.5C 702.833,1372.5 702.5,1321.5 701.5,1270.5C 700.893,1270.62 700.56,1270.96 700.5,1271.5C 675.062,1297.44 649.395,1323.27 623.5,1349C 622.833,1349.67 622.167,1349.67 621.5,1349C 614.667,1342.17 607.833,1335.33 601,1328.5C 600.53,1327.42 600.697,1326.42 601.5,1325.5C 633.006,1294.83 664.006,1263.66 694.5,1232C 663.463,1200.96 632.297,1169.8 601,1138.5C 600.333,1137.83 600.333,1137.17 601,1136.5C 602.376,1135.29 603.542,1133.96 604.5,1132.5C 610.298,1127.2 615.965,1121.7 621.5,1116C 622.167,1115.33 622.833,1115.33 623.5,1116C 649.333,1141.83 675.167,1167.67 701,1193.5C 701.5,1142.83 701.667,1092.17 701.5,1041.5 Z"/></g>
<g><path style="opacity:1" fill="#455a64" d="M 331.5,1028.5 C 332.309,1030.29 332.809,1032.29 333,1034.5C 333.833,1165.33 333.666,1296 332.5,1426.5C 332.82,1293.82 332.486,1161.16 331.5,1028.5 Z"/></g>
<g><path style="opacity:1" fill="#010102" d="M 942.5,1098.5 C 1000.68,1151.54 1018.18,1215.88 995,1291.5C 983.867,1320.76 966.533,1345.76 943,1366.5C 935.652,1359.32 928.485,1351.99 921.5,1344.5C 972.719,1296.87 986.219,1240.21 962,1174.5C 952.15,1153.82 938.65,1135.82 921.5,1120.5C 928.521,1113.15 935.521,1105.81 942.5,1098.5 Z"/></g>
<g><path style="opacity:1" fill="#42494f" d="M 734.5,1108.5 C 733.502,1138.33 733.169,1168.33 733.5,1198.5C 732.17,1168.33 732.17,1138 733.5,1107.5C 734.107,1107.62 734.44,1107.96 734.5,1108.5 Z"/></g>
<g><path style="opacity:1" fill="#7da1b0" d="M 734.5,1108.5 C 752.466,1123.13 770.133,1138.13 787.5,1153.5C 769.509,1168.5 751.509,1183.5 733.5,1198.5C 733.169,1168.33 733.502,1138.33 734.5,1108.5 Z"/></g>
<g><path style="opacity:1" fill="#93b0bf" d="M 701.5,1041.5 C 701.667,1092.17 701.5,1142.83 701,1193.5C 675.167,1167.67 649.333,1141.83 623.5,1116C 622.833,1115.33 622.167,1115.33 621.5,1116C 615.965,1121.7 610.298,1127.2 604.5,1132.5C 609.236,1126.26 614.569,1120.42 620.5,1115C 621.833,1114.33 623.167,1114.33 624.5,1115C 649.667,1140.17 674.833,1165.33 700,1190.5C 700.165,1140.1 700.665,1090.43 701.5,1041.5 Z"/></g>
<g><path style="opacity:1" fill="#020202" d="M 897.5,1143.5 C 925.962,1165.76 940.628,1195.09 941.5,1231.5C 941.122,1268.25 926.788,1298.25 898.5,1321.5C 890.833,1314.5 883.5,1307.17 876.5,1299.5C 892.572,1286.39 903.405,1269.72 909,1249.5C 913.763,1225.22 908.763,1203.22 894,1183.5C 888.532,1177.03 882.699,1170.86 876.5,1165C 883.703,1157.96 890.703,1150.8 897.5,1143.5 Z"/></g>
<g><path style="opacity:1" fill="#010102" d="M 852.5,1188.5 C 874.224,1202.62 882.058,1222.28 876,1247.5C 871.365,1259.31 863.865,1268.98 853.5,1276.5C 846.014,1269.51 838.681,1262.35 831.5,1255C 835.667,1250.83 839.833,1246.67 844,1242.5C 848.579,1235.8 848.579,1229.14 844,1222.5C 839.833,1218.33 835.667,1214.17 831.5,1210C 838.703,1202.96 845.703,1195.8 852.5,1188.5 Z"/></g>
<g><path style="opacity:1" fill="#42494f" d="M 733.5,1266.5 C 733.169,1296.67 733.502,1326.67 734.5,1356.5C 734.44,1357.04 734.107,1357.38 733.5,1357.5C 732.17,1327 732.17,1296.67 733.5,1266.5 Z"/></g>
<g><path style="opacity:1" fill="#7da1b0" d="M 733.5,1266.5 C 751.509,1281.5 769.509,1296.5 787.5,1311.5C 770.133,1326.87 752.466,1341.87 734.5,1356.5C 733.502,1326.67 733.169,1296.67 733.5,1266.5 Z"/></g>
<g><path style="opacity:1" fill="#454d54" d="M 700.5,1271.5 C 700.56,1270.96 700.893,1270.62 701.5,1270.5C 702.5,1321.5 702.833,1372.5 702.5,1423.5C 702.5,1423.83 702.5,1424.17 702.5,1424.5C 702.167,1424.5 701.833,1424.5 701.5,1424.5C 701.832,1373.33 701.499,1322.33 700.5,1271.5 Z"/></g>
<g><path style="opacity:1" fill="#92b0bf" d="M 700.5,1271.5 C 701.499,1322.33 701.832,1373.33 701.5,1424.5C 701.167,1424.5 700.833,1424.5 700.5,1424.5C 700.667,1374.5 700.5,1324.5 700,1274.5C 674.833,1299.67 649.667,1324.83 624.5,1350C 623.167,1350.67 621.833,1350.67 620.5,1350C 613.667,1343.17 606.833,1336.33 600,1329.5C 599.156,1327.54 599.656,1326.2 601.5,1325.5C 600.697,1326.42 600.53,1327.42 601,1328.5C 607.833,1335.33 614.667,1342.17 621.5,1349C 622.167,1349.67 622.833,1349.67 623.5,1349C 649.395,1323.27 675.062,1297.44 700.5,1271.5 Z"/></g>
<g><path style="opacity:1" fill="#6c929f" d="M 1268.5,1424.5 C 1269.12,1424.61 1269.62,1424.94 1270,1425.5C 1271.36,1434.07 1274.19,1442.07 1278.5,1449.5C 1276.77,1449.84 1276.27,1450.84 1277,1452.5C 1281.23,1461.53 1286.4,1469.86 1292.5,1477.5C 1278.31,1462.78 1270.31,1445.12 1268.5,1424.5 Z"/></g>
<g><path style="opacity:1" fill="#6b919e" d="M 1525.5,1429.5 C 1520.27,1463.73 1501.27,1486.39 1468.5,1497.5C 1486.25,1490.61 1500.75,1479.28 1512,1463.5C 1515.15,1459.22 1517.15,1454.55 1518,1449.5C 1517.18,1450.82 1516.02,1451.49 1514.5,1451.5C 1518.71,1444.41 1522.38,1437.08 1525.5,1429.5 Z"/></g>
<g><path style="opacity:1" fill="#aed4f8" d="M 1278.5,1449.5 C 1290.2,1467.02 1306.2,1478.69 1326.5,1484.5C 1331.22,1486.29 1336.22,1487.46 1341.5,1488C 1378.83,1488.67 1416.17,1488.67 1453.5,1488C 1458.78,1487.46 1463.78,1486.29 1468.5,1484.5C 1487.74,1478.93 1503.07,1467.93 1514.5,1451.5C 1516.02,1451.49 1517.18,1450.82 1518,1449.5C 1517.15,1454.55 1515.15,1459.22 1512,1463.5C 1500.75,1479.28 1486.25,1490.61 1468.5,1497.5C 1468.17,1497.5 1467.83,1497.5 1467.5,1497.5C 1467.26,1496.9 1466.76,1496.57 1466,1496.5C 1460.87,1497.52 1455.7,1498.35 1450.5,1499C 1414.83,1499.67 1379.17,1499.67 1343.5,1499C 1334.55,1498.24 1325.88,1496.24 1317.5,1493C 1308.78,1488.31 1300.44,1483.15 1292.5,1477.5C 1286.4,1469.86 1281.23,1461.53 1277,1452.5C 1276.27,1450.84 1276.77,1449.84 1278.5,1449.5 Z"/></g>
<g><path style="opacity:1" fill="#a4c1d2" d="M 328.5,1447.5 C 328.313,1449.56 327.813,1451.56 327,1453.5C 324.725,1457.73 322.225,1461.73 319.5,1465.5C 321.906,1460.34 324.072,1455.01 326,1449.5C 326.708,1448.62 327.542,1447.95 328.5,1447.5 Z"/></g>
<g><path style="opacity:1" fill="#7499a8" d="M 1326.5,1484.5 C 1329.84,1484.89 1333.17,1485.39 1336.5,1486C 1377.17,1486.67 1417.83,1486.67 1458.5,1486C 1461.83,1485.39 1465.16,1484.89 1468.5,1484.5C 1463.78,1486.29 1458.78,1487.46 1453.5,1488C 1416.17,1488.67 1378.83,1488.67 1341.5,1488C 1336.22,1487.46 1331.22,1486.29 1326.5,1484.5 Z"/></g>
<g><path style="opacity:1" fill="#9fbccd" d="M 305.5,1482.5 C 295.267,1492.78 282.933,1499.12 268.5,1501.5C 268.611,1500.88 268.944,1500.38 269.5,1500C 274.847,1498.32 280.181,1496.66 285.5,1495C 289.624,1492.53 293.457,1489.69 297,1486.5C 297.333,1486.83 297.667,1487.17 298,1487.5C 299.977,1485.01 302.477,1483.35 305.5,1482.5 Z"/></g>
<g><path style="opacity:1" fill="#93b0bf" d="M 118.5,1496.5 C 122.651,1496.1 125.985,1497.43 128.5,1500.5C 124.873,1499.68 121.54,1498.35 118.5,1496.5 Z"/></g>
<g><path style="opacity:1" fill="#698f9c" d="M 1292.5,1477.5 C 1300.44,1483.15 1308.78,1488.31 1317.5,1493C 1325.88,1496.24 1334.55,1498.24 1343.5,1499C 1379.17,1499.67 1414.83,1499.67 1450.5,1499C 1455.7,1498.35 1460.87,1497.52 1466,1496.5C 1466.76,1496.57 1467.26,1496.9 1467.5,1497.5C 1464.32,1498.43 1460.99,1499.26 1457.5,1500C 1416.83,1500.67 1376.17,1500.67 1335.5,1500C 1318.9,1496.7 1304.57,1489.2 1292.5,1477.5 Z"/></g>
<g><path style="opacity:1" fill="#a8c6d7" d="M 129.5,1500.5 C 175.139,1502.79 220.805,1503.12 266.5,1501.5C 264.708,1502.31 262.708,1502.81 260.5,1503C 219.5,1503.67 178.5,1503.67 137.5,1503C 134.621,1502.45 131.954,1501.62 129.5,1500.5 Z"/></g>
</svg>
